<svg height="512" viewBox="0 0 512 512" width="512" xmlns="http://www.w3.org/2000/svg" xmlns:xlink="http://www.w3.org/1999/xlink"><linearGradient id="New_Gradient_Swatch_34" gradientUnits="userSpaceOnUse" x1="259.322" x2="400.678" y1="246.678" y2="105.322"><stop offset=".015" stop-color="#f9cd55"/><stop offset="1" stop-color="#fdbc8c"/></linearGradient><linearGradient id="New_Gradient_Swatch_28" gradientUnits="userSpaceOnUse" x1="106.014" x2="405.986" y1="541.986" y2="242.014"><stop offset=".015" stop-color="#b7bfd8"/><stop offset="1" stop-color="#e4f2ee"/></linearGradient><g id="_01-sunny_cloud" data-name="01-sunny cloud"><g id="gradient_blend" data-name="gradient blend"><circle cx="330" cy="176" fill="url(#New_Gradient_Swatch_34)" r="100"/><g fill="#fce6aa"><path d="m330 52a12 12 0 0 1 -12-12v-16a12 12 0 0 1 24 0v16a12 12 0 0 1 -12 12z"/><path d="m258.011 71.294a11.993 11.993 0 0 1 -10.4-6l-8-13.856a12 12 0 0 1 20.784-12l8 13.856a12 12 0 0 1 -10.381 18z"/><path d="m205.281 124a11.949 11.949 0 0 1 -5.989-1.61l-13.856-8a12 12 0 1 1 12-20.784l13.856 8a12 12 0 0 1 -6.011 22.394z"/><path d="m468.553 276a11.947 11.947 0 0 1 -5.989-1.61l-13.856-8a12 12 0 1 1 12-20.784l13.856 8a12 12 0 0 1 -6.011 22.394z"/><path d="m490 196h-16a12 12 0 0 1 0-24h16a12 12 0 0 1 0 24z"/><path d="m454.719 124a12 12 0 0 1 -6.011-22.394l13.856-8a12 12 0 1 1 12 20.784l-13.856 8a11.949 11.949 0 0 1 -5.989 1.61z"/><path d="m401.989 71.294a12 12 0 0 1 -10.381-18l8-13.856a12 12 0 1 1 20.784 12l-8 13.856a11.993 11.993 0 0 1 -10.403 6z"/></g><path d="m392 276c-1.348 0-2.7.023-4.058.07-2.086-70.97-60.472-128.07-131.942-128.07s-129.856 57.1-131.942 128.07c-1.355-.047-2.71-.07-4.058-.07a116 116 0 0 0 0 232h272a116 116 0 0 0 0-232z" fill="url(#New_Gradient_Swatch_28)"/></g></g></svg>