<svg height="512" viewBox="0 0 512 512" width="512" xmlns="http://www.w3.org/2000/svg" xmlns:xlink="http://www.w3.org/1999/xlink"><linearGradient id="New_Gradient_Swatch_34" gradientUnits="userSpaceOnUse" x1="134.435" x2="377.565" y1="377.565" y2="134.435"><stop offset=".015" stop-color="#f9cd55"/><stop offset="1" stop-color="#fdbc8c"/></linearGradient><g id="_03-windy" data-name="03-windy"><g id="gradient"><circle cx="256" cy="256" fill="url(#New_Gradient_Swatch_34)" r="172"/><g fill="#fce6aa"><path d="m256 60a12 12 0 0 1 -12-12v-25a12 12 0 0 1 24 0v25a12 12 0 0 1 -12 12z"/><path d="m152.011 87.869a12 12 0 0 1 -10.4-6l-12.5-21.651a12 12 0 0 1 20.784-12l12.5 21.651a12 12 0 0 1 -10.381 18z"/><path d="m75.855 164a11.94 11.94 0 0 1 -5.988-1.61l-21.651-12.5a12 12 0 1 1 12-20.784l21.651 12.5a12 12 0 0 1 -6.012 22.394z"/><path d="m139.489 469.786a12 12 0 0 1 -10.381-18l12.5-21.651a12 12 0 0 1 20.784 12l-12.5 21.651a12 12 0 0 1 -10.403 6z"/><path d="m256 501a12 12 0 0 1 -12-12v-25a12 12 0 0 1 24 0v25a12 12 0 0 1 -12 12z"/><path d="m372.511 469.786a12 12 0 0 1 -10.4-6l-12.5-21.651a12 12 0 1 1 20.784-12l12.5 21.651a12 12 0 0 1 -10.381 18z"/><path d="m359.989 87.869a12 12 0 0 1 -10.381-18l12.5-21.651a12 12 0 1 1 20.784 12l-12.5 21.651a12 12 0 0 1 -10.403 6z"/></g><path d="m424 172h-144a12 12 0 0 1 0-24h144a20 20 0 1 0 -15-33.226 12 12 0 0 1 -18-15.88 44 44 0 1 1 33 73.106z" fill="#a9a3cd"/><path d="m464 348a44.034 44.034 0 0 1 -33-14.894 12 12 0 0 1 18-15.88 20 20 0 1 0 15-33.226h-144a12 12 0 0 1 0-24h144a44 44 0 0 1 0 88z" fill="#a9a3cd"/><path d="m48 412a44 44 0 0 1 0-88h144a12 12 0 0 1 0 24h-144a20 20 0 1 0 15 33.226 12 12 0 0 1 18 15.88 44.034 44.034 0 0 1 -33 14.894z" fill="#c5c1dd"/><path d="m456 228h-184a12 12 0 0 1 0-24h184a12 12 0 0 1 0 24z" fill="#e2e0ee"/><path d="m224 228h-16a12 12 0 0 1 0-24h16a12 12 0 0 1 0 24z" fill="#a9a3cd"/><path d="m328 348h-88a12 12 0 0 1 0-24h88a12 12 0 0 1 0 24z" fill="#a9a3cd"/><path d="m168 284h-104a12 12 0 0 1 0-24h104a12 12 0 0 1 0 24z" fill="#a9a3cd"/><path d="m272 284h-56a12 12 0 0 1 0-24h56a12 12 0 0 1 0 24z" fill="#e2e0ee"/></g></g></svg>