<svg height="512" viewBox="0 0 512 512" width="512" xmlns="http://www.w3.org/2000/svg" xmlns:xlink="http://www.w3.org/1999/xlink"><linearGradient id="New_Gradient_Swatch_31" gradientUnits="userSpaceOnUse" x1="57.247" x2="174.751" y1="178.752" y2="61.248"><stop offset=".015" stop-color="#8c84bc"/><stop offset="1" stop-color="#dbdfec"/></linearGradient><linearGradient id="New_Gradient_Swatch_28" gradientUnits="userSpaceOnUse" x1="104.014" x2="403.986" y1="468.986" y2="169.014"><stop offset=".015" stop-color="#b7bfd8"/><stop offset="1" stop-color="#e4f2ee"/></linearGradient><linearGradient id="New_Gradient_Swatch_31-2" x1="353.247" x2="470.751" xlink:href="#New_Gradient_Swatch_31" y1="250.752" y2="133.248"/><linearGradient id="New_Gradient_Swatch_31-3" x1="177.247" x2="294.751" xlink:href="#New_Gradient_Swatch_31" y1="482.752" y2="365.248"/><g id="_05-couldy" data-name="05-couldy"><path d="m162.618 68.065a52.007 52.007 0 0 0 -101.477 1.076 52 52 0 0 0 10.859 102.859h88a52 52 0 0 0 2.618-103.935z" fill="url(#New_Gradient_Swatch_31)"/><path d="m390 203c-1.348 0-2.7.023-4.058.07-2.086-70.97-60.472-128.07-131.942-128.07s-129.856 57.1-131.942 128.07c-1.355-.047-2.71-.07-4.058-.07a116 116 0 0 0 0 232h272a116 116 0 0 0 0-232z" fill="url(#New_Gradient_Swatch_28)"/><path d="m458.618 140.065a52.007 52.007 0 0 0 -101.477 1.076 52 52 0 0 0 10.859 102.859h88a52 52 0 0 0 2.618-103.935z" fill="url(#New_Gradient_Swatch_31-2)"/><path d="m282.618 372.065a52.007 52.007 0 0 0 -101.477 1.076 52 52 0 0 0 10.859 102.859h88a52 52 0 0 0 2.618-103.935z" fill="url(#New_Gradient_Swatch_31-3)"/></g></svg>