<svg height="512" viewBox="0 0 512 512" width="512" xmlns="http://www.w3.org/2000/svg" xmlns:xlink="http://www.w3.org/1999/xlink"><linearGradient id="New_Gradient_Swatch_28" gradientUnits="userSpaceOnUse" x1="73.247" x2="190.752" y1="178.752" y2="61.248"><stop offset=".015" stop-color="#b7bfd8"/><stop offset="1" stop-color="#e4f2ee"/></linearGradient><linearGradient id="New_Gradient_Swatch_28-2" x1="322.1" x2="439.605" xlink:href="#New_Gradient_Swatch_28" y1="513.814" y2="396.31"/><g id="_07-windy_couldy" data-name="07-windy couldy"><g id="gradient"><g fill="#aed7cb"><path d="m424 172h-144a12 12 0 0 1 0-24h144a20 20 0 1 0 -15-33.226 12 12 0 0 1 -18-15.88 44 44 0 1 1 33 73.106z"/><path d="m464 348a44.034 44.034 0 0 1 -33-14.894 12 12 0 0 1 18-15.88 20 20 0 1 0 15-33.226h-144a12 12 0 0 1 0-24h144a44 44 0 0 1 0 88z"/><path d="m48 412a44 44 0 0 1 0-88h144a12 12 0 0 1 0 24h-144a20 20 0 1 0 15 33.226 12 12 0 0 1 18 15.88 44.034 44.034 0 0 1 -33 14.894z"/></g><path d="m456 228h-184a12 12 0 0 1 0-24h184a12 12 0 0 1 0 24z" fill="#c9e4dd"/><path d="m224 228h-16a12 12 0 0 1 0-24h16a12 12 0 0 1 0 24z" fill="#94caba"/><path d="m328 348h-88a12 12 0 0 1 0-24h88a12 12 0 0 1 0 24z" fill="#c9e4dd"/><path d="m168 284h-104a12 12 0 0 1 0-24h104a12 12 0 0 1 0 24z" fill="#c9e4dd"/><path d="m272 284h-56a12 12 0 0 1 0-24h56a12 12 0 0 1 0 24z" fill="#94caba"/><path d="m178.618 68.065a52.007 52.007 0 0 0 -101.477 1.076 52 52 0 0 0 10.859 102.859h88a52 52 0 0 0 2.618-103.935z" fill="url(#New_Gradient_Swatch_28)"/><path d="m427.471 403.127a52.007 52.007 0 0 0 -101.477 1.073 52 52 0 0 0 10.859 102.859h88a52 52 0 0 0 2.618-103.935z" fill="url(#New_Gradient_Swatch_28-2)"/></g></g></svg>