<svg height="512" viewBox="0 0 512 512" width="512" xmlns="http://www.w3.org/2000/svg" xmlns:xlink="http://www.w3.org/1999/xlink"><linearGradient id="New_Gradient_Swatch_28" gradientUnits="userSpaceOnUse" x1="353.247" x2="470.752" y1="170.752" y2="53.248"><stop offset=".015" stop-color="#b7bfd8"/><stop offset="1" stop-color="#e4f2ee"/></linearGradient><linearGradient id="New_Gradient_Swatch_28-2" x1="41.247" x2="158.752" xlink:href="#New_Gradient_Swatch_28" y1="498.752" y2="381.248"/><g id="_08-snow" data-name="08-snow"><g id="gradient"><path d="m320 244h-35.029l19.514-19.515a12 12 0 0 0 -16.97-16.97l-19.515 19.514v-35.029a12 12 0 0 0 -24 0v35.029l-19.515-19.514a12 12 0 0 0 -16.97 16.97l19.514 19.515h-35.029a12 12 0 0 0 0 24h35.029l-19.514 19.515a12 12 0 1 0 16.97 16.97l19.515-19.514v35.029a12 12 0 0 0 24 0v-35.029l19.515 19.514a12 12 0 0 0 16.97-16.97l-19.514-19.515h35.029a12 12 0 0 0 0-24z" fill="#8c84bc"/><path d="m480 404h-35.029l19.514-19.515a12 12 0 0 0 -16.97-16.97l-19.515 19.514v-35.029a12 12 0 0 0 -24 0v35.029l-19.515-19.514a12 12 0 0 0 -16.97 16.97l19.514 19.515h-35.029a12 12 0 0 0 0 24h35.029l-19.514 19.515a12 12 0 1 0 16.97 16.97l19.515-19.514v35.029a12 12 0 0 0 24 0v-35.029l19.515 19.514a12 12 0 0 0 16.97-16.97l-19.514-19.515h35.029a12 12 0 0 0 0-24z" fill="#8c84bc"/><path d="m160 84h-35.029l19.514-19.515a12 12 0 0 0 -16.97-16.97l-19.515 19.514v-35.029a12 12 0 0 0 -24 0v35.029l-19.515-19.514a12 12 0 0 0 -16.97 16.97l19.514 19.515h-35.029a12 12 0 0 0 0 24h35.029l-19.514 19.515a12 12 0 1 0 16.97 16.97l19.515-19.514v35.029a12 12 0 0 0 24 0v-35.029l19.515 19.514a12 12 0 0 0 16.97-16.97l-19.514-19.515h35.029a12 12 0 0 0 0-24z" fill="#8c84bc"/><g fill="#e2e0ee"><circle cx="460" cy="276" r="12"/><circle cx="268" cy="460" r="12"/><circle cx="36" cy="212" r="12"/><circle cx="140" cy="252" r="12"/><circle cx="372" cy="220" r="12"/><circle cx="356" cy="308" r="12"/><circle cx="196" cy="348" r="12"/><circle cx="308" cy="372" r="12"/><circle cx="76" cy="308" r="12"/><circle cx="284" cy="52" r="12"/><circle cx="220" cy="140" r="12"/></g><path d="m458.618 60.065a52.007 52.007 0 0 0 -101.477 1.076 52 52 0 0 0 10.859 102.859h88a52 52 0 0 0 2.618-103.935z" fill="url(#New_Gradient_Swatch_28)"/><path d="m146.618 388.065a52.007 52.007 0 0 0 -101.477 1.076 52 52 0 0 0 10.859 102.859h88a52 52 0 0 0 2.618-103.935z" fill="url(#New_Gradient_Swatch_28-2)"/></g></g></svg>