<svg height="512" viewBox="0 0 512 512" width="512" xmlns="http://www.w3.org/2000/svg" xmlns:xlink="http://www.w3.org/1999/xlink"><linearGradient id="New_Gradient_Swatch_28" gradientUnits="userSpaceOnUse" x1="106.014" x2="405.986" y1="397.986" y2="98.014"><stop offset=".015" stop-color="#b7bfd8"/><stop offset="1" stop-color="#e4f2ee"/></linearGradient><linearGradient id="New_Gradient_Swatch_9" gradientUnits="userSpaceOnUse" x1="198.65" x2="313.35" y1="282.08" y2="167.379"><stop offset=".015" stop-color="#8c84bc"/><stop offset="1" stop-color="#e2e0ee"/></linearGradient><g id="_09-humidity" data-name="09-humidity"><g id="gradient"><path d="m392 132c-1.348 0-2.7.023-4.058.07-2.086-70.97-60.472-128.07-131.942-128.07s-129.856 57.1-131.942 128.07c-1.355-.047-2.71-.07-4.058-.07a116 116 0 0 0 0 232h272a116 116 0 0 0 0-232z" fill="url(#New_Gradient_Swatch_28)"/><path d="m297.679 159.152c-16.207-22.114-32.171-39.54-32.843-40.271a12 12 0 0 0 -17.672 0c-.672.731-16.636 18.157-32.843 40.271-23.094 31.512-34.321 55.341-34.321 72.848a76 76 0 0 0 152 0c0-17.507-11.227-41.336-34.321-72.848z" fill="url(#New_Gradient_Swatch_9)"/><g fill="#c9e4dd"><path d="m343.348 447.217a12 12 0 0 1 -12-12v-8a12 12 0 0 1 24 0v8a12 12 0 0 1 -12 12z"/><path d="m343.348 507.217a12 12 0 0 1 -12-12v-8a12 12 0 0 1 24 0v8a12 12 0 0 1 -12 12z"/><path d="m255.348 447.217a12 12 0 0 1 -12-12v-8a12 12 0 0 1 24 0v8a12 12 0 0 1 -12 12z"/><path d="m255.348 507.217a12 12 0 0 1 -12-12v-8a12 12 0 0 1 24 0v8a12 12 0 0 1 -12 12z"/><path d="m167.348 447.217a12 12 0 0 1 -12-12v-8a12 12 0 0 1 24 0v8a12 12 0 0 1 -12 12z"/><path d="m167.348 507.217a12 12 0 0 1 -12-12v-8a12 12 0 0 1 24 0v8a12 12 0 0 1 -12 12z"/></g></g></g></svg>