<svg height="512" viewBox="0 0 512 512" width="512" xmlns="http://www.w3.org/2000/svg" xmlns:xlink="http://www.w3.org/1999/xlink"><linearGradient id="New_Gradient_Swatch_7" gradientUnits="userSpaceOnUse" x1="117.147" x2="394.853" y1="486.118" y2="208.412"><stop offset=".015" stop-color="#94caba"/><stop offset="1" stop-color="#e4f2ee"/></linearGradient><linearGradient id="New_Gradient_Swatch_24" gradientUnits="userSpaceOnUse" x1="156.543" x2="355.457" y1="464.096" y2="265.183"><stop offset=".015" stop-color="#f9cd55"/><stop offset="1" stop-color="#fdf3d4"/></linearGradient><linearGradient id="linear-gradient" gradientUnits="userSpaceOnUse" x1="41.247" x2="158.752" y1="482.752" y2="365.248"><stop offset=".015" stop-color="#8c84bc"/><stop offset="1" stop-color="#dbdfec"/></linearGradient><linearGradient id="linear-gradient-2" x1="353.247" x2="470.752" xlink:href="#linear-gradient" y1="482.752" y2="365.248"/><g id="_13-rainbow" data-name="13-rainbow"><g id="gradient"><path d="m417.22 230.78a228 228 0 0 0 -389.22 161.22 12 12 0 0 0 12 12h112a12 12 0 0 0 12-12 92 92 0 0 1 184 0 12 12 0 0 0 12 12h112a12 12 0 0 0 12-12 226.5 226.5 0 0 0 -66.78-161.22z" fill="url(#New_Gradient_Swatch_7)"/><path d="m416 392a160 160 0 0 0 -320 0q0 6.055.447 12h55.553a12 12 0 0 0 12-12 92 92 0 0 1 184 0 12 12 0 0 0 12 12h55.553q.441-5.943.447-12z" fill="url(#New_Gradient_Swatch_24)"/><path d="m146.618 372.065a52.007 52.007 0 0 0 -101.477 1.076 52 52 0 0 0 10.859 102.859h88a52 52 0 0 0 2.618-103.935z" fill="url(#linear-gradient)"/><path d="m458.618 372.065a52.007 52.007 0 0 0 -101.477 1.076 52 52 0 0 0 10.859 102.859h88a52 52 0 0 0 2.618-103.935z" fill="url(#linear-gradient-2)"/></g></g></svg>