<svg height="512" viewBox="0 0 512 512" width="512" xmlns="http://www.w3.org/2000/svg" xmlns:xlink="http://www.w3.org/1999/xlink"><linearGradient id="New_Gradient_Swatch_24" gradientUnits="userSpaceOnUse" x1="143.514" x2="324.485" y1="352.486" y2="171.514"><stop offset=".015" stop-color="#f9cd55"/><stop offset="1" stop-color="#fdf3d4"/></linearGradient><g id="_14-thunder_wind" data-name="14-thunder wind"><g id="gradient"><path d="m432.087 148.121h-184a12 12 0 1 1 0-24h184a20 20 0 1 0 -15-33.225 12 12 0 0 1 -17.994-15.882 44 44 0 1 1 33 73.107z" fill="#aed7cb"/><path d="m464.087 412.121a44.036 44.036 0 0 1 -33-14.892 12 12 0 0 1 17.994-15.882 20 20 0 1 0 15-33.226h-88a12 12 0 0 1 0-24h88a44 44 0 0 1 0 88z" fill="#aed7cb"/><path d="m48.087 467.121a44 44 0 0 1 0-88h95a12 12 0 0 1 0 24h-95a20 20 0 1 0 15 33.226 12 12 0 1 1 17.994 15.882 44.033 44.033 0 0 1 -32.994 14.892z" fill="#aed7cb"/><g fill="#c9e4dd"><path d="m295.087 91.121h-88a12 12 0 0 1 0-24h88a12 12 0 0 1 0 24z"/><path d="m127.087 148.121h-87a12 12 0 1 1 0-24h87a12 12 0 0 1 0 24z"/><path d="m368.087 403.121h-120a12 12 0 0 1 0-24h120a12 12 0 0 1 0 24z"/><path d="m152.087 347.121h-88a12 12 0 1 1 0-24h88a12 12 0 0 1 0 24z"/></g><path d="m328.087 347.121h-32a12 12 0 0 1 0-24h32a12 12 0 0 1 0 24z" fill="#94caba"/><path d="m448 260h-72a12 12 0 0 1 0-24h72a12 12 0 0 1 0 24z" fill="#c9e4dd"/><path d="m160 220h-72a12 12 0 0 1 0-24h72a12 12 0 0 1 0 24z" fill="#c9e4dd"/><path d="m128 292h-24a12 12 0 0 1 0-24h24a12 12 0 0 1 0 24z" fill="#94caba"/><path d="m56 292h-40a12 12 0 0 1 0-24h40a12 12 0 0 1 0 24z" fill="#c9e4dd"/><path d="m200 148h-25a12 12 0 0 1 0-24h25a12 12 0 0 1 0 24z" fill="#94caba"/><path d="m320 236h-29.555l38.586-44.1a12 12 0 0 0 -9.031-19.9h-88a12 12 0 0 0 -10.733 6.633l-48 96a12 12 0 0 0 10.733 17.367h23.752l-27.221 88.471a12 12 0 0 0 20.207 11.754l128-136a12 12 0 0 0 -8.738-20.225z" fill="url(#New_Gradient_Swatch_24)"/></g></g></svg>