<svg height="512" viewBox="0 0 512 512" width="512" xmlns="http://www.w3.org/2000/svg" xmlns:xlink="http://www.w3.org/1999/xlink"><linearGradient id="New_Gradient_Swatch_31" gradientUnits="userSpaceOnUse" x1="157.732" x2="354.268" y1="414.703" y2="218.167"><stop offset=".015" stop-color="#8c84bc"/><stop offset="1" stop-color="#dbdfec"/></linearGradient><linearGradient id="New_Gradient_Swatch_26" gradientUnits="userSpaceOnUse" x1="179.842" x2="332.158" y1="380.812" y2="228.496"><stop offset=".015" stop-color="#aed7cb"/><stop offset="1" stop-color="#e4f2ee"/></linearGradient><linearGradient id="New_Gradient_Swatch_31-2" x1="198.725" x2="313.275" xlink:href="#New_Gradient_Swatch_31" y1="343.696" y2="229.146"/><linearGradient id="New_Gradient_Swatch_28" gradientUnits="userSpaceOnUse" x1="353.247" x2="470.752" y1="154.752" y2="37.248"><stop offset=".015" stop-color="#b7bfd8"/><stop offset="1" stop-color="#e4f2ee"/></linearGradient><linearGradient id="New_Gradient_Swatch_28-2" x1="41.247" x2="158.752" xlink:href="#New_Gradient_Swatch_28" y1="154.752" y2="37.248"/><g id="_15-umbrella" data-name="15-umbrella"><g id="gradient"><path d="m296 508a52.059 52.059 0 0 1 -52-52v-104a12 12 0 0 1 24 0v104a28 28 0 0 0 56 0 12 12 0 0 1 24 0 52.059 52.059 0 0 1 -52 52z" fill="#fce6aa"/><path d="m256 204a12 12 0 0 1 -12-12v-41a12 12 0 0 1 24 0v41a12 12 0 0 1 -12 12z" fill="#fce6aa"/><path d="m256 180c-86.019 0-156 77.159-156 172a12 12 0 0 0 12 12h288a12 12 0 0 0 12-12c0-94.841-69.981-172-156-172z" fill="url(#New_Gradient_Swatch_31)"/><path d="m328.74 233.08c-18.826-34.229-44.659-53.08-72.74-53.08s-53.914 18.851-72.74 53.08c-17.579 31.962-27.26 74.195-27.26 118.92a12 12 0 0 0 12 12h176a12 12 0 0 0 12-12c0-44.725-9.681-86.958-27.26-118.92z" fill="url(#New_Gradient_Swatch_26)"/><path d="m290.4 236.509c-7.716-38.552-18.645-56.509-34.4-56.509s-26.684 17.956-34.4 56.509c-6.188 30.972-9.6 71.991-9.6 115.491a12 12 0 0 0 12 12h64a12 12 0 0 0 12-12c0-43.5-3.411-84.52-9.6-115.491z" fill="url(#New_Gradient_Swatch_31-2)"/><path d="m458.618 44.065a52.007 52.007 0 0 0 -101.477 1.076 52 52 0 0 0 10.859 102.859h88a52 52 0 0 0 2.618-103.935z" fill="url(#New_Gradient_Swatch_28)"/><path d="m146.618 44.065a52.007 52.007 0 0 0 -101.477 1.076 52 52 0 0 0 10.859 102.859h88a52 52 0 0 0 2.618-103.935z" fill="url(#New_Gradient_Swatch_28-2)"/><g fill="#c9e4dd"><path d="m473 204a12 12 0 0 1 -12-12v-8a12 12 0 0 1 24 0v8a12 12 0 0 1 -12 12z"/><path d="m473 252a12 12 0 0 1 -12-12v-8a12 12 0 0 1 24 0v8a12 12 0 0 1 -12 12z"/><path d="m424 204a12 12 0 0 1 -12-12v-8a12 12 0 0 1 24 0v8a12 12 0 0 1 -12 12z"/><path d="m424 252a12 12 0 0 1 -12-12v-8a12 12 0 0 1 24 0v8a12 12 0 0 1 -12 12z"/><path d="m376 204a12 12 0 0 1 -12-12v-8a12 12 0 0 1 24 0v8a12 12 0 0 1 -12 12z"/><path d="m473 300a12 12 0 0 1 -12-12v-8a12 12 0 0 1 24 0v8a12 12 0 0 1 -12 12z"/><path d="m473 348a12 12 0 0 1 -12-12v-8a12 12 0 0 1 24 0v8a12 12 0 0 1 -12 12z"/><path d="m39 204a12 12 0 0 1 -12-12v-8a12 12 0 0 1 24 0v8a12 12 0 0 1 -12 12z"/><path d="m39 252a12 12 0 0 1 -12-12v-8a12 12 0 0 1 24 0v8a12 12 0 0 1 -12 12z"/><path d="m89 204a12 12 0 0 1 -12-12v-8a12 12 0 0 1 24 0v8a12 12 0 0 1 -12 12z"/><path d="m89 252a12 12 0 0 1 -12-12v-8a12 12 0 0 1 24 0v8a12 12 0 0 1 -12 12z"/><path d="m137 204a12 12 0 0 1 -12-12v-8a12 12 0 0 1 24 0v8a12 12 0 0 1 -12 12z"/><path d="m39 300a12 12 0 0 1 -12-12v-8a12 12 0 0 1 24 0v8a12 12 0 0 1 -12 12z"/><path d="m39 348a12 12 0 0 1 -12-12v-8a12 12 0 0 1 24 0v8a12 12 0 0 1 -12 12z"/></g></g></g></svg>