<svg height="512" viewBox="0 0 512 512" width="512" xmlns="http://www.w3.org/2000/svg" xmlns:xlink="http://www.w3.org/1999/xlink"><linearGradient id="New_Gradient_Swatch_34" gradientUnits="userSpaceOnUse" x1="151.975" x2="362.025" y1="327.945" y2="117.895"><stop offset=".015" stop-color="#f9cd55"/><stop offset="1" stop-color="#fdbc8c"/></linearGradient><g id="_16-sunrise" data-name="16-sunrise"><g id="gradient"><g fill="#fce6aa"><path d="m257 60a12 12 0 0 1 -12-12v-25a12 12 0 0 1 24 0v25a12 12 0 0 1 -12 12z"/><path d="m153.011 87.869a12 12 0 0 1 -10.4-6l-12.5-21.651a12 12 0 0 1 20.786-12l12.5 21.651a12 12 0 0 1 -10.382 18z"/><path d="m76.856 164a11.956 11.956 0 0 1 -5.989-1.609l-21.651-12.5a12 12 0 0 1 12-20.786l21.651 12.5a12 12 0 0 1 -6.011 22.395z"/><path d="m437.144 164a12 12 0 0 1 -6.011-22.4l21.651-12.5a12 12 0 1 1 12 20.786l-21.651 12.5a11.956 11.956 0 0 1 -5.989 1.614z"/><path d="m360.989 87.869a12 12 0 0 1 -10.382-18l12.5-21.651a12 12 0 0 1 20.786 12l-12.5 21.651a12 12 0 0 1 -10.404 6z"/></g><path d="m257 84c-94.841 0-172 77.159-172 172a12 12 0 0 0 12 12h320a12 12 0 0 0 12-12c0-94.841-77.159-172-172-172z" fill="url(#New_Gradient_Swatch_34)"/><path d="m495.5 268.5h-479a12 12 0 0 1 0-24h479a12 12 0 0 1 0 24z" fill="#b7bfd8"/><path d="m304.485 183.515-40-40a12 12 0 0 0 -16.97 0l-40 40a12 12 0 0 0 16.97 16.97l19.515-19.514v163.029a12 12 0 0 0 24 0v-163.029l19.515 19.514a12 12 0 0 0 16.97-16.97z" fill="#8c84bc"/></g></g></svg>