<svg height="512" viewBox="0 0 512 512" width="512" xmlns="http://www.w3.org/2000/svg" xmlns:xlink="http://www.w3.org/1999/xlink"><linearGradient id="New_Gradient_Swatch_32" gradientUnits="userSpaceOnUse" x1="67.727" x2="444.273" y1="515.848" y2="139.303"><stop offset=".015" stop-color="#939fc5"/><stop offset="1" stop-color="#c9e4dd"/></linearGradient><linearGradient id="New_Gradient_Swatch_29" gradientUnits="userSpaceOnUse" x1="207.813" x2="295.904" y1="119.482" y2="31.392"><stop offset=".015" stop-color="#f9cd55"/><stop offset="1" stop-color="#fed3b2"/></linearGradient><g id="_19-tide_down" data-name="19-tide down"><g id="gradient"><path d="m480 180a12 12 0 0 0 -12 12 44 44 0 0 1 -88 0 12 12 0 0 0 -24 0 44 44 0 0 1 -88 0 12 12 0 0 0 -24 0 44 44 0 0 1 -88 0 12 12 0 0 0 -24 0 44 44 0 0 1 -88 0 12 12 0 0 0 -24 0v248a67.983 67.983 0 0 0 124 38.536 67.949 67.949 0 0 0 112 0 67.949 67.949 0 0 0 112 0 67.983 67.983 0 0 0 124-38.536v-248a12 12 0 0 0 -12-12z" fill="url(#New_Gradient_Swatch_32)"/><path d="m304.181 359.515a12 12 0 0 0 -16.971 0l-19.51 19.514v-51.029a12 12 0 0 0 -24 0v51.029l-19.515-19.514a12 12 0 0 0 -16.971 16.97l40 40a12 12 0 0 0 16.971 0l40-40a12 12 0 0 0 -.004-16.97z" fill="#8c84bc"/><path d="m136.485 335.123a12 12 0 0 0 -16.97 0l-19.515 19.515v-51.03a12 12 0 0 0 -24 0v51.03l-19.515-19.515a12 12 0 0 0 -16.97 16.971l40 40a12 12 0 0 0 16.97 0l40-40a12 12 0 0 0 0-16.971z" fill="#e2e0ee"/><path d="m472.485 335.123a12 12 0 0 0 -16.97 0l-19.515 19.515v-51.03a12 12 0 1 0 -24 0v51.03l-19.515-19.515a12 12 0 1 0 -16.97 16.971l40 40a12 12 0 0 0 16.97 0l40-40a12 12 0 0 0 0-16.971z" fill="#e2e0ee"/><path d="m318.664 66.437a12 12 0 0 0 -11.755-1.288 28 28 0 0 1 -33.715-42.157 12 12 0 0 0 -8.094-18.94 68.823 68.823 0 0 0 -9.235-.639 68 68 0 1 0 67.742 73.767 12 12 0 0 0 -4.943-10.743z" fill="url(#New_Gradient_Swatch_29)"/></g></g></svg>