<svg height="511.99986pt" viewBox="0 0 511.99986 511.99986" width="511.99986pt" xmlns="http://www.w3.org/2000/svg"><path d="m477.449219 256c0-21.75 39.410156-48.386719 34.050781-68.449219-5.550781-20.757812-53.15625-24.101562-63.671875-42.277343-10.667969-18.433594 10.125-61.304688-4.835937-76.265626-14.960938-14.960937-57.832032 5.828126-76.269532-4.835937-18.171875-10.515625-21.515625-58.121094-42.273437-63.671875-20.0625-5.359375-46.699219 34.050781-68.449219 34.050781s-48.386719-39.410156-68.449219-34.050781c-20.757812 5.550781-24.101562 53.15625-42.277343 63.671875-18.433594 10.667969-61.304688-10.125-76.265626 4.835937-14.960937 14.960938 5.828126 57.832032-4.835937 76.269532-10.515625 18.171875-58.121094 21.515625-63.671875 42.273437-5.359375 20.0625 34.050781 46.699219 34.050781 68.449219s-39.410156 48.386719-34.050781 68.449219c5.550781 20.757812 53.15625 24.101562 63.671875 42.277343 10.667969 18.433594-10.125 61.304688 4.835937 76.265626 14.960938 14.960937 57.832032-5.828126 76.269532 4.835937 18.171875 10.515625 21.515625 58.121094 42.273437 63.671875 20.0625 5.359375 46.699219-34.050781 68.449219-34.050781s48.386719 39.410156 68.449219 34.050781c20.757812-5.550781 24.101562-53.15625 42.277343-63.671875 18.433594-10.667969 61.304688 10.125 76.265626-4.835937 14.960937-14.960938-5.828126-57.832032 4.835937-76.269532 10.515625-18.171875 58.121094-21.515625 63.671875-42.273437 5.359375-20.0625-34.050781-46.699219-34.050781-68.449219zm0 0" fill="#ffee8c"/><path d="m426.957031 256c0 86.347656-64.019531 157.746094-147.191406 169.3125-7.765625 1.089844-15.695313 1.640625-23.761719 1.640625-94.417968 0-170.96875-76.539063-170.96875-170.953125 0-94.417969 76.550782-170.957031 170.96875-170.957031 8.066406 0 15.996094.554687 23.761719 1.640625 83.171875 11.566406 147.191406 82.964844 147.191406 169.316406zm0 0" fill="#f28f44"/><path d="m426.957031 256c0 86.347656-64.019531 157.746094-147.191406 169.3125-83.175781-11.566406-147.195313-82.964844-147.195313-169.3125 0-86.351562 64.019532-157.75 147.195313-169.316406 83.171875 11.566406 147.191406 82.964844 147.191406 169.316406zm0 0" fill="#ffd073"/><g fill="#cc9236"><path d="m155.875 229.488281c-2.003906 0-4.011719-.765625-5.539062-2.296875-3.0625-3.0625-3.0625-8.023437 0-11.082031 17.53125-17.53125 46.054687-17.53125 63.582031 0 3.0625 3.058594 3.0625 8.019531 0 11.082031-3.058594 3.058594-8.019531 3.058594-11.082031 0-11.417969-11.421875-29.996094-11.421875-41.417969 0-1.53125 1.53125-3.535157 2.296875-5.542969 2.296875zm0 0"/><path d="m356.125 229.488281c-2.007812 0-4.011719-.765625-5.542969-2.296875-11.417969-11.421875-30-11.417968-41.417969 0-3.0625 3.058594-8.023437 3.058594-11.082031 0-3.0625-3.0625-3.0625-8.023437 0-11.082031 17.527344-17.53125 46.054688-17.53125 63.585938 0 3.058593 3.058594 3.058593 8.023437 0 11.082031-1.53125 1.53125-3.539063 2.296875-5.542969 2.296875zm0 0"/><path d="m256 310.582031c-17.015625 0-33.015625-6.628906-45.046875-18.660156-3.058594-3.0625-3.058594-8.023437 0-11.082031 3.0625-3.0625 8.023437-3.0625 11.082031 0 9.074219 9.070312 21.132813 14.066406 33.964844 14.066406s24.890625-4.996094 33.964844-14.066406c3.058594-3.0625 8.023437-3.0625 11.082031 0 3.058594 3.058594 3.058594 8.019531 0 11.082031-12.03125 12.03125-28.03125 18.660156-45.046875 18.660156zm0 0"/></g></svg>