<svg height="512pt" viewBox="0 0 512 512.00001" width="512pt" xmlns="http://www.w3.org/2000/svg"><path d="m509.53125 291.945312c-79.9375 79.933594-209.539062 79.933594-289.472656 0-79.9375-79.9375-79.9375-209.539062 0-289.476562.835937-.835938 1.683594-1.648438 2.53125-2.46875-53.863282 7.269531-105.867188 31.585938-147.265625 72.984375-100.429688 100.429687-100.429688 263.261719 0 363.691406 100.429687 100.429688 263.261719 100.429688 363.691406 0 41.398437-41.398437 65.714844-93.402343 72.984375-147.265625-.820312.847656-1.632812 1.695313-2.46875 2.535156zm0 0" fill="#ffd073"/><path d="m368.015625 486.964844c-95.585937 45.640625-213.523437 28.875-292.691406-50.289063-100.433594-100.433593-100.433594-263.257812 0-363.691406 38.574219-38.574219 86.367187-62.328125 136.277343-71.25-25.664062 12.238281-49.722656 29.003906-70.976562 50.257813-100.433594 100.433593-100.433594 263.257812 0 363.691406 61.847656 61.84375 147.363281 85.609375 227.390625 71.28125zm0 0" fill="#f28f44"/><path d="m355.84375 117.804688 28.492188-5.566407c12.484374-2.441406 12.484374-20.300781 0-22.738281l-28.492188-5.570312c-16.21875-3.167969-28.898438-15.847657-32.066406-32.066407l-5.570313-28.492187c-2.4375-12.484375-20.300781-12.484375-22.738281 0l-5.570312 28.492187c-3.167969 16.21875-15.847657 28.898438-32.0625 32.066407l-28.496094 5.570312c-12.484375 2.4375-12.484375 20.296875 0 22.738281l28.496094 5.566407c16.214843 3.167968 28.894531 15.847656 32.0625 32.066406l5.570312 28.496094c2.4375 12.484374 20.300781 12.484374 22.738281 0l5.570313-28.496094c3.167968-16.214844 15.847656-28.898438 32.066406-32.066406zm0 0" fill="#ffee8c"/><path d="m424.875 251.722656 18.40625-3.597656c8.066406-1.574219 8.066406-13.113281 0-14.6875l-18.40625-3.597656c-10.476562-2.046875-18.667969-10.238282-20.714844-20.714844l-3.597656-18.40625c-1.574219-8.066406-13.113281-8.066406-14.6875 0l-3.597656 18.40625c-2.046875 10.476562-10.238282 18.667969-20.714844 20.714844l-18.40625 3.597656c-8.066406 1.574219-8.066406 13.113281 0 14.6875l18.40625 3.597656c10.476562 2.046875 18.667969 10.238282 20.714844 20.714844l3.597656 18.40625c1.574219 8.066406 13.113281 8.066406 14.6875 0l3.597656-18.40625c2.046875-10.476562 10.238282-18.664062 20.714844-20.714844zm0 0" fill="#ffee8c"/><g fill="#cc9236"><path d="m80.242188 257.46875c-3.292969 0-6.363282-2.078125-7.464844-5.375l-2.980469-8.90625c-1.378906-4.121094.84375-8.582031 4.964844-9.964844 4.125-1.378906 8.585937.84375 9.964843 4.96875l2.980469 8.90625c1.378907 4.121094-.84375 8.582032-4.964843 9.964844-.828126.277344-1.671876.40625-2.5.40625zm0 0"/><path d="m123.632812 242.949219c-3.292968 0-6.363281-2.082031-7.464843-5.378907l-2.980469-8.90625c-1.378906-4.121093.84375-8.582031 4.964844-9.964843 4.125-1.378907 8.585937.847656 9.964844 4.96875l2.980468 8.90625c1.378906 4.121093-.84375 8.582031-4.964844 9.964843-.828124.277344-1.671874.410157-2.5.410157zm0 0"/><path d="m105.152344 300.09375c-9.335938 0-18.613282-2.167969-27.214844-6.453125-3.890625-1.9375-5.472656-6.664063-3.535156-10.558594 1.941406-3.890625 6.667968-5.472656 10.558594-3.53125 22.402343 11.164063 49.707031 2.023438 60.875-20.375 1.9375-3.894531 6.667968-5.476562 10.554687-3.535156 3.894531 1.9375 5.476563 6.664063 3.535156 10.558594-7.285156 14.613281-19.824219 25.515625-35.308593 30.699219-6.375 2.132812-12.933594 3.195312-19.464844 3.195312zm0 0"/></g></svg>