<svg height="512" viewBox="0 0 512 512" width="512" xmlns="http://www.w3.org/2000/svg" xmlns:xlink="http://www.w3.org/1999/xlink"><linearGradient id="New_Gradient_Swatch_32" gradientUnits="userSpaceOnUse" x1="87.544" x2="138.456" y1="160.456" y2="109.544"><stop offset=".015" stop-color="#939fc5"/><stop offset="1" stop-color="#c9e4dd"/></linearGradient><linearGradient id="New_Gradient_Swatch_32-2" x1="31.544" x2="82.456" xlink:href="#New_Gradient_Swatch_32" y1="425.456" y2="374.544"/><linearGradient id="New_Gradient_Swatch_32-3" x1="272.544" x2="323.456" xlink:href="#New_Gradient_Swatch_32" y1="487.456" y2="436.544"/><linearGradient id="New_Gradient_Swatch_32-4" x1="291.544" x2="342.456" xlink:href="#New_Gradient_Swatch_32" y1="300.456" y2="249.544"/><g id="_20-_hail" data-name="20- hail"><g id="gradient"><path d="m155.426 126.515-33.941-33.942a12 12 0 0 0 -16.97 0l-33.941 33.942a12 12 0 0 0 0 16.97l33.941 33.942a12 12 0 0 0 16.97 0l33.941-33.942a12 12 0 0 0 0-16.97z" fill="url(#New_Gradient_Swatch_32)"/><path d="m184 116a12 12 0 0 1 -8.485-20.485l84-84a12 12 0 0 1 16.97 16.97l-84 84a11.963 11.963 0 0 1 -8.485 3.515z" fill="#c5c1dd"/><path d="m152 76a12 12 0 0 1 -8.485-20.485l20-20a12 12 0 0 1 16.97 16.97l-20 20a11.963 11.963 0 0 1 -8.485 3.515z" fill="#e2e0ee"/><path d="m99.426 391.515-33.941-33.942a12 12 0 0 0 -16.97 0l-33.941 33.942a12 12 0 0 0 0 16.97l33.941 33.942a12 12 0 0 0 16.97 0l33.941-33.942a12 12 0 0 0 0-16.97z" fill="url(#New_Gradient_Swatch_32-2)"/><path d="m130 381a12 12 0 0 1 -8.606-20.362l102.5-105.5a12 12 0 0 1 17.214 16.724l-102.5 105.5a11.968 11.968 0 0 1 -8.608 3.638z" fill="#e2e0ee"/><path d="m99 337a12 12 0 0 1 -8.485-20.485l20-20a12 12 0 0 1 16.97 16.97l-20 20a11.963 11.963 0 0 1 -8.485 3.515z" fill="#c5c1dd"/><path d="m340.426 453.515-33.941-33.942a12 12 0 0 0 -16.97 0l-33.941 33.942a12 12 0 0 0 0 16.97l33.941 33.942a12 12 0 0 0 16.97 0l33.941-33.942a12 12 0 0 0 0-16.97z" fill="url(#New_Gradient_Swatch_32-3)"/><path d="m369 443a12 12 0 0 1 -8.485-20.485l84-84a12 12 0 0 1 16.97 16.97l-84 84a11.963 11.963 0 0 1 -8.485 3.515z" fill="#a9a3cd"/><path d="m337 403a12 12 0 0 1 -8.485-20.485l20-20a12 12 0 0 1 16.97 16.97l-20 20a11.963 11.963 0 0 1 -8.485 3.515z" fill="#c5c1dd"/><path d="m359.426 266.515-33.941-33.942a12 12 0 0 0 -16.97 0l-33.941 33.942a12 12 0 0 0 0 16.97l33.941 33.942a12 12 0 0 0 16.97 0l33.941-33.942a12 12 0 0 0 0-16.97z" fill="url(#New_Gradient_Swatch_32-4)"/><path d="m388 256a12 12 0 0 1 -8.485-20.485l84-84a12 12 0 0 1 16.97 16.97l-84 84a11.963 11.963 0 0 1 -8.485 3.515z" fill="#c5c1dd"/><path d="m356 216a12 12 0 0 1 -8.485-20.485l20-20a12 12 0 0 1 16.97 16.97l-20 20a11.963 11.963 0 0 1 -8.485 3.515z" fill="#a9a3cd"/><g fill="#e2e0ee"><path d="m176 220a12 12 0 0 1 -8.485-20.485l88-88a12 12 0 1 1 16.97 16.97l-88 88a11.963 11.963 0 0 1 -8.485 3.515z"/><path d="m300 96a12 12 0 0 1 -8.485-20.485l68-68a12 12 0 0 1 16.97 16.97l-68 68a11.963 11.963 0 0 1 -8.485 3.515z"/><path d="m128 476a12 12 0 0 1 -8.485-20.485l68-68a12 12 0 0 1 16.97 16.97l-68 68a11.963 11.963 0 0 1 -8.485 3.515z"/></g><path d="m232 371a12 12 0 0 1 -8.485-20.485l28-28a12 12 0 0 1 16.97 16.97l-28 28a11.963 11.963 0 0 1 -8.485 3.515z" fill="#c5c1dd"/></g></g></svg>