<svg height="512" viewBox="0 0 512 512" width="512" xmlns="http://www.w3.org/2000/svg" xmlns:xlink="http://www.w3.org/1999/xlink"><linearGradient id="New_Gradient_Swatch_31" gradientUnits="userSpaceOnUse" x1="153.247" x2="270.751" y1="186.752" y2="69.248"><stop offset=".015" stop-color="#8c84bc"/><stop offset="1" stop-color="#dbdfec"/></linearGradient><linearGradient id="New_Gradient_Swatch_29" gradientUnits="userSpaceOnUse" x1="118.433" x2="320.805" y1="409.563" y2="207.191"><stop offset=".015" stop-color="#f9cd55"/><stop offset="1" stop-color="#fed3b2"/></linearGradient><linearGradient id="New_Gradient_Swatch_31-2" x1="353.247" x2="470.751" xlink:href="#New_Gradient_Swatch_31" y1="274.752" y2="157.248"/><linearGradient id="New_Gradient_Swatch_31-3" x1="41.247" x2="158.751" xlink:href="#New_Gradient_Swatch_31" y1="426.752" y2="309.248"/><g id="_21-moon" data-name="21-moon"><g id="gradient"><path d="m258.618 76.065a52.007 52.007 0 0 0 -101.477 1.076 52 52 0 0 0 10.859 102.859h88a52 52 0 0 0 2.618-103.935z" fill="url(#New_Gradient_Swatch_31)"/><path d="m405.769 292.559a12 12 0 0 0 -12.485-.247 116.025 116.025 0 0 1 -159.194-157.556 12 12 0 0 0 -11.643-17.87 172.02 172.02 0 0 0 -154.447 171.114c0 94.841 77.159 172 172 172a172.01 172.01 0 0 0 171.274-156.232 12 12 0 0 0 -5.505-11.209z" fill="url(#New_Gradient_Swatch_29)"/><path d="m458.618 164.065a52.007 52.007 0 0 0 -101.477 1.076 52 52 0 0 0 10.859 102.859h88a52 52 0 0 0 2.618-103.935z" fill="url(#New_Gradient_Swatch_31-2)"/><path d="m146.618 316.065a52.007 52.007 0 0 0 -101.477 1.076 52 52 0 0 0 10.859 102.859h88a52 52 0 0 0 2.618-103.935z" fill="url(#New_Gradient_Swatch_31-3)"/></g></g></svg>