<svg height="512" viewBox="0 0 512 512" width="512" xmlns="http://www.w3.org/2000/svg" xmlns:xlink="http://www.w3.org/1999/xlink"><linearGradient id="New_Gradient_Swatch_27" gradientUnits="userSpaceOnUse" x1="58.35" x2="341.73" y1="404.297" y2="120.917"><stop offset=".015" stop-color="#c9e4dd"/><stop offset="1" stop-color="#e4f2ee"/></linearGradient><linearGradient id="New_Gradient_Swatch_33" gradientUnits="userSpaceOnUse" x1="94.208" x2="305.792" y1="372.405" y2="160.821"><stop offset=".015" stop-color="#a9a3cd"/><stop offset="1" stop-color="#dbdfec"/></linearGradient><g id="_24-temp_cold" data-name="24-temp cold"><g id="gradient"><g fill="#a9a3cd"><path d="m144 308h-56a12 12 0 0 1 0-24h56a12 12 0 0 1 0 24z"/><path d="m144 244h-56a12 12 0 0 1 0-24h56a12 12 0 0 1 0 24z"/><path d="m144 180h-56a12 12 0 0 1 0-24h56a12 12 0 0 1 0 24z"/><path d="m144 116h-56a12 12 0 0 1 0-24h56a12 12 0 0 1 0 24z"/></g><path d="m260 346.253v-282.253a60 60 0 0 0 -120 0v282.265a92.433 92.433 0 0 0 -31.994 70.779 92.294 92.294 0 0 0 89.783 90.931c.748.017 1.491.026 2.236.026a92 92 0 0 0 59.975-161.748z" fill="url(#New_Gradient_Swatch_27)"/><path d="m212 373.677v-301.677a12 12 0 0 0 -24 0v301.677a44 44 0 1 0 24 0z" fill="url(#New_Gradient_Swatch_33)"/><path d="m424.608 220.521h-35.029l19.515-19.514a12 12 0 0 0 -16.971-16.971l-19.515 19.515v-35.03a12 12 0 0 0 -24 0v35.03l-19.514-19.515a12 12 0 0 0 -16.971 16.971l19.515 19.514h-35.03a12 12 0 0 0 0 24h35.03l-19.515 19.515a12 12 0 0 0 16.971 16.971l19.514-19.515v35.029a12 12 0 0 0 24 0v-35.029l19.515 19.515a12 12 0 0 0 16.971-16.971l-19.515-19.515h35.029a12 12 0 0 0 0-24z" fill="#8c84bc"/></g></g></svg>