<svg height="512" viewBox="0 0 512 512" width="512" xmlns="http://www.w3.org/2000/svg" xmlns:xlink="http://www.w3.org/1999/xlink"><linearGradient id="New_Gradient_Swatch_27" gradientUnits="userSpaceOnUse" x1="108" x2="292" y1="256" y2="256"><stop offset=".015" stop-color="#c9e4dd"/><stop offset="1" stop-color="#e4f2ee"/></linearGradient><linearGradient id="New_Gradient_Swatch_34" gradientUnits="userSpaceOnUse" x1="314.554" x2="405.446" y1="271.367" y2="180.475"><stop offset=".015" stop-color="#f9cd55"/><stop offset="1" stop-color="#fdbc8c"/></linearGradient><g id="_25-temp_warm" data-name="25-temp warm"><g id="gradient"><g fill="#fce6aa"><path d="m144 308h-56a12 12 0 0 1 0-24h56a12 12 0 0 1 0 24z"/><path d="m144 244h-56a12 12 0 0 1 0-24h56a12 12 0 0 1 0 24z"/><path d="m144 180h-56a12 12 0 0 1 0-24h56a12 12 0 0 1 0 24z"/><path d="m144 116h-56a12 12 0 0 1 0-24h56a12 12 0 0 1 0 24z"/></g><path d="m260 346.253v-282.253a60 60 0 0 0 -120 0v282.265a92.433 92.433 0 0 0 -31.994 70.779 92.3 92.3 0 0 0 89.784 90.931c.747.017 1.491.026 2.236.026a92 92 0 0 0 59.974-161.748z" fill="url(#New_Gradient_Swatch_27)"/><path d="m212 373.677v-301.677a12 12 0 0 0 -24 0v301.677a44 44 0 1 0 24 0z" fill="#fdf3d4"/><path d="m393.742 175.053c-12.237-17.017-24.3-30.5-24.811-31.068a12 12 0 0 0 -17.862 0c-.508.566-12.574 14.051-24.811 31.068-17.669 24.568-26.258 43.196-26.258 56.947a60 60 0 0 0 120 0c0-13.751-8.589-32.379-26.258-56.947z" fill="url(#New_Gradient_Swatch_34)"/><path d="m336 232c0-13.255 24-48 24-48s24 34.745 24 48a24 24 0 0 1 -48 0z" fill="#fdf3d4"/></g></g></svg>