<svg height="512" viewBox="0 0 512 512" width="512" xmlns="http://www.w3.org/2000/svg" xmlns:xlink="http://www.w3.org/1999/xlink"><linearGradient id="New_Gradient_Swatch_31" gradientUnits="userSpaceOnUse" x1="58.35" x2="341.73" y1="404.297" y2="120.917"><stop offset=".015" stop-color="#8c84bc"/><stop offset="1" stop-color="#dbdfec"/></linearGradient><linearGradient id="New_Gradient_Swatch_34" gradientUnits="userSpaceOnUse" x1="226.642" x2="397.358" y1="321.076" y2="150.359"><stop offset=".015" stop-color="#f9cd55"/><stop offset="1" stop-color="#fdbc8c"/></linearGradient><g id="_26-warning" data-name="26-warning"><g id="gradient"><g fill="#8c84bc"><path d="m144 308h-56a12 12 0 0 1 0-24h56a12 12 0 0 1 0 24z"/><path d="m144 244h-56a12 12 0 0 1 0-24h56a12 12 0 0 1 0 24z"/><path d="m144 180h-56a12 12 0 0 1 0-24h56a12 12 0 0 1 0 24z"/><path d="m144 116h-56a12 12 0 0 1 0-24h56a12 12 0 0 1 0 24z"/></g><path d="m260 346.253v-282.253a60 60 0 0 0 -120 0v282.265a92.433 92.433 0 0 0 -31.994 70.779 92.3 92.3 0 0 0 89.784 90.931c.747.017 1.491.026 2.236.026a92 92 0 0 0 59.974-161.748z" fill="url(#New_Gradient_Swatch_31)"/><path d="m212 373.677v-301.677a12 12 0 0 0 -24 0v301.677a44 44 0 1 0 24 0z" fill="#fdf3d4"/><path d="m430.107 241.749-80.148-136.725a44 44 0 0 0 -75.918 0l-80.148 136.725a44 44 0 0 0 37.959 66.251h160.3a44 44 0 0 0 37.959-66.251z" fill="url(#New_Gradient_Swatch_34)"/><path d="m312 220a12 12 0 0 1 -12-12v-65a12 12 0 0 1 24 0v65a12 12 0 0 1 -12 12z" fill="#fdf3d4"/><path d="m312 276a12 12 0 0 1 -12-12v-8a12 12 0 0 1 24 0v8a12 12 0 0 1 -12 12z" fill="#fdf3d4"/></g></g></svg>