<svg height="512" viewBox="0 0 512 512" width="512" xmlns="http://www.w3.org/2000/svg" xmlns:xlink="http://www.w3.org/1999/xlink"><linearGradient id="New_Gradient_Swatch_32" gradientUnits="userSpaceOnUse" x1="400.764" x2="463.958" y1="505.735" y2="442.541"><stop offset=".015" stop-color="#939fc5"/><stop offset="1" stop-color="#c9e4dd"/></linearGradient><linearGradient id="New_Gradient_Swatch_32-2" x1="389.125" x2="475.597" xlink:href="#New_Gradient_Swatch_32" y1="465.098" y2="378.626"/><linearGradient id="New_Gradient_Swatch_34" gradientUnits="userSpaceOnUse" x1="66.657" x2="157.343" y1="95.301" y2="4.614"><stop offset=".015" stop-color="#f9cd55"/><stop offset="1" stop-color="#fdbc8c"/></linearGradient><linearGradient id="New_Gradient_Swatch_30" gradientUnits="userSpaceOnUse" x1="345.11" x2="490.08" y1="218.08" y2="73.11"><stop offset=".015" stop-color="#f9cd55"/><stop offset="1" stop-color="#fee9d9"/></linearGradient><linearGradient id="New_Gradient_Swatch_34-2" x1="387.246" x2="484.216" xlink:href="#New_Gradient_Swatch_34" y1="212.216" y2="115.246"/><linearGradient id="New_Gradient_Swatch_31" gradientUnits="userSpaceOnUse" x1="99.96" x2="367.409" y1="345.889" y2="78.439"><stop offset=".015" stop-color="#8c84bc"/><stop offset="1" stop-color="#dbdfec"/></linearGradient><linearGradient id="New_Gradient_Swatch_33" gradientUnits="userSpaceOnUse" x1="197.955" x2="357.288" y1="355.852" y2="196.519"><stop offset=".015" stop-color="#a9a3cd"/><stop offset="1" stop-color="#dbdfec"/></linearGradient><g id="_28-wind_direction" data-name="28-wind direction"><g id="gradient"><path d="m384 436h-116v-36a12 12 0 0 0 -24 0v36h-188.367l15.023-10.016a12 12 0 1 0 -13.312-19.968l-48 32a12 12 0 0 0 0 19.968l48 32a12 12 0 1 0 13.312-19.968l-15.023-10.016h188.367v36a12 12 0 0 0 24 0v-36h116a12 12 0 0 0 0-24z" fill="#c5c1dd"/><path d="m469.417 448h-97.39a12.134 12.134 0 0 0 1.24 5.366l24 48a12 12 0 0 0 10.733 6.634h72a12 12 0 0 0 10.733-17.366z" fill="url(#New_Gradient_Swatch_32)"/><path d="m490.733 405.366a12 12 0 0 0 -10.733-17.366h-72a12 12 0 0 0 -10.733 6.634l-24 48a12.131 12.131 0 0 0 -1.24 5.366h97.39z" fill="url(#New_Gradient_Swatch_32-2)"/><path d="m48 172h-32a12 12 0 0 1 0-24h32a12 12 0 0 1 0 24z" fill="#8c84bc"/><path d="m194.645 42.479a107.992 107.992 0 0 0 -165.29 0 12 12 0 0 0 .916 16.43l73.464 69.791a12 12 0 0 0 16.53 0l73.464-69.791a12 12 0 0 0 .916-16.43z" fill="url(#New_Gradient_Swatch_34)"/><path d="m464 52h-8c-72.785 0-132 59.215-132 132v8a12 12 0 0 0 12 12h128a12 12 0 0 0 12-12v-128a12 12 0 0 0 -12-12z" fill="url(#New_Gradient_Swatch_30)"/><path d="m464 100a92.1 92.1 0 0 0 -92 92 12 12 0 0 0 12 12h80a12 12 0 0 0 12-12v-80a12 12 0 0 0 -12-12z" fill="url(#New_Gradient_Swatch_34-2)"/><path d="m464 180h-276v-52a76 76 0 0 0 -152 0v62.218a219.43 219.43 0 0 0 17.648 86.442 223.433 223.433 0 0 0 47.964 70.881c41.652 41.577 96.469 64.459 154.397 64.459h.393a220 220 0 0 0 219.598-220 12 12 0 0 0 -12-12z" fill="url(#New_Gradient_Swatch_31)"/><circle cx="104" cy="120" fill="#8c84bc" r="12"/><path d="m399.71 238.975a12.431 12.431 0 0 0 -8.256-2.975h-191.454a12 12 0 0 0 -12 12v84.679a11.973 11.973 0 0 0 7.272 11.035 156.085 156.085 0 0 0 207.838-91.714 12.011 12.011 0 0 0 -3.4-13.025z" fill="url(#New_Gradient_Swatch_33)"/></g></g></svg>