<svg height="512" viewBox="0 0 512 512" width="512" xmlns="http://www.w3.org/2000/svg" xmlns:xlink="http://www.w3.org/1999/xlink"><linearGradient id="New_Gradient_Swatch_32" gradientUnits="userSpaceOnUse" x1="72.7" x2="406.415" y1="450.601" y2="116.887"><stop offset=".015" stop-color="#939fc5"/><stop offset="1" stop-color="#c9e4dd"/></linearGradient><linearGradient id="New_Gradient_Swatch_28" gradientUnits="userSpaceOnUse" x1="134.464" x2="409.519" y1="567.156" y2="292.102"><stop offset=".015" stop-color="#b7bfd8"/><stop offset="1" stop-color="#e4f2ee"/></linearGradient><g id="_29-wave" data-name="29-wave"><g id="gradient"><path d="m496 284a12 12 0 0 0 -12 12 44 44 0 0 1 -88 0 12 12 0 0 0 -24 0 44 44 0 0 1 -88 0 12 12 0 0 0 -24 0 44.049 44.049 0 0 1 -44 44c-12.574 0-31.778-4.753-47.966-18.094-18.602-15.331-28.034-37.506-28.034-65.906 0-57.812 30.606-100.269 77.973-108.163 20.95-3.491 47.087.084 71.708 9.809 31.852 12.582 61.192 35.308 84.846 65.721a12 12 0 0 0 21.34-5.587c.261-1.741 6.238-43.159-7.359-89.18-12.786-43.278-45.726-98.593-130.036-116.342-72.587-15.285-128.494 6.242-162.613 26.982-36.921 22.448-56.642 48.469-57.459 49.566a12 12 0 0 0 -2.4 7.194v294l13.752 37.653 53.348 13.347h345.6l44.3-13 15-38v-94a12 12 0 0 0 -12-12z" fill="url(#New_Gradient_Swatch_32)"/><path d="m499.874 400.137a82.529 82.529 0 0 1 -59.135 24.563 83.985 83.985 0 0 1 -56-21.431 83.881 83.881 0 0 1 -112 0 83.881 83.881 0 0 1 -112 0 83.985 83.985 0 0 1 -56 21.431 84.991 84.991 0 0 1 -68.739-34.845v51.145c0 37.327 30.836 67.695 68.739 67.695a67.979 67.979 0 0 0 56-29.464 67.949 67.949 0 0 0 112 0 67.949 67.949 0 0 0 112 0 67.98 67.98 0 0 0 56 29.464 66.646 66.646 0 0 0 47.76-19.81 67.6 67.6 0 0 0 19.501-47.885v-50.417a83.7 83.7 0 0 1 -8.126 9.554z" fill="url(#New_Gradient_Swatch_28)"/></g></g></svg>