<svg height="512pt" viewBox="0 -10 512 512" width="512pt" xmlns="http://www.w3.org/2000/svg"><path d="m483.324219 151.332031c-36.757813 36.757813-96.347657 36.757813-133.105469 0-36.757812-36.757812-36.757812-96.347656 0-133.105469.382812-.382812.773438-.757812 1.164062-1.132812-24.765624 3.339844-48.679687 14.519531-67.714843 33.558594-46.179688 46.179687-46.179688 121.050781 0 167.230468 46.179687 46.179688 121.050781 46.179688 167.230469 0 19.039062-19.035156 30.21875-42.949218 33.5625-67.714843-.378907.390625-.753907.78125-1.136719 1.164062zm0 0" fill="#ffd073"/><path d="m418.253906 241.007812c-43.953125 20.984376-98.183594 13.277344-134.585937-23.125-46.179688-46.183593-46.179688-121.050781 0-167.230468 17.738281-17.738282 39.714843-28.660156 62.664062-32.761719-11.800781 5.625-22.863281 13.335937-32.636719 23.109375-46.179687 46.179688-46.179687 121.046875 0 167.230469 28.4375 28.4375 67.757813 39.363281 104.558594 32.777343zm0 0" fill="#f28f44"/><path d="m119.625 66.523438 18.261719-3.566407c8-1.5625 8-13.011719 0-14.574219l-18.261719-3.570312c-10.394531-2.03125-18.519531-10.15625-20.550781-20.550781l-3.566407-18.261719c-1.5625-8-13.011718-8-14.574218 0l-3.570313 18.261719c-2.03125 10.394531-10.15625 18.519531-20.550781 20.550781l-18.261719 3.570312c-8 1.5625-8 13.007813 0 14.574219l18.261719 3.566407c10.394531 2.03125 18.519531 10.160156 20.550781 20.550781l3.570313 18.261719c1.5625 8.003906 13.011718 8.003906 14.574218 0l3.570313-18.261719c2.027344-10.390625 10.152344-18.519531 20.546875-20.550781zm0 0" fill="#ffee8c"/><path d="m408.09375 304.191406c0 37.882813-30.710938 68.59375-68.609375 68.59375h-248.265625c-50.371094 0-91.21875-40.832031-91.21875-91.21875 0-50.375 40.847656-91.21875 91.21875-91.21875 4.519531 0 8.964844.347656 13.316406.976563 20.601563-40.910157 62.964844-68.980469 111.910156-68.980469 59.222657 0 108.835938 41.117188 121.867188 96.355469 1.300781 5.511719 2.238281 11.164062 2.78125 16.921875v.011718c37.136719.851563 67 31.214844 67 68.558594zm0 0" fill="#84abc1"/><path d="m259.96875 130.125c-13.558594-5.035156-28.226562-7.777344-43.523438-7.777344-48.945312 0-91.296874 28.070313-111.910156 68.96875v.011719c-4.355468-.632813-8.796875-.980469-13.316406-.980469-50.386719.003906-91.21875 40.847656-91.21875 91.222656 0 50.386719 40.832031 91.21875 91.21875 91.21875h44.089844c-45.402344 0-82.191406-36.800781-82.191406-82.191406 0-40.277344 28.972656-73.796875 67.230468-80.828125 3.785156-.707031 7.660156-1.144531 11.613282-1.300781 1.105468-.039062 2.226562-.066406 3.347656-.066406 14.757812 0 28.613281 3.890625 40.574218 10.714844-1.660156-11.578126-13.632812-22.425782-31.28125-31.167969 9.691407-32.777344 42.675782-63.175781 115.367188-57.824219zm0 0" fill="#4d87a1"/><path d="m512 436.441406c0 30.636719-24.835938 55.472656-55.484375 55.472656h-200.785156c-40.738281 0-73.769531-33.019531-73.769531-73.769531 0-40.742187 33.03125-73.773437 73.769531-73.773437 3.65625 0 7.25.28125 10.769531.789062 16.664062-33.082031 50.925781-55.785156 90.507812-55.785156 47.894532 0 88.019532 33.25 98.558594 77.925781 1.050782 4.457031 1.8125 9.03125 2.25 13.683594v.011719c30.035156.6875 54.183594 25.242187 54.183594 55.445312zm0 0" fill="#d3ddea"/><path d="m392.207031 295.667969c-10.964843-4.074219-22.828125-6.289063-35.199219-6.289063-39.582031 0-73.835937 22.699219-90.507812 55.777344v.007812c-3.519531-.507812-7.113281-.789062-10.769531-.789062-40.75 0-73.769531 33.03125-73.769531 73.769531 0 40.75 33.019531 73.773438 73.769531 73.773438h35.660156c-36.71875 0-66.472656-29.761719-66.472656-66.472657 0-32.574218 23.429687-59.679687 54.371093-65.367187 3.0625-.574219 6.195313-.925781 9.394532-1.050781.894531-.03125 1.800781-.054688 2.707031-.054688 11.933594 0 23.140625 3.144532 32.8125 8.664063-1.34375-9.363281-11.023437-18.136719-25.300781-25.207031 7.839844-26.507813 34.515625-51.089844 93.304687-46.761719zm0 0" fill="#84abc1"/></svg>