<svg height="512" viewBox="0 0 512 512" width="512" xmlns="http://www.w3.org/2000/svg" xmlns:xlink="http://www.w3.org/1999/xlink"><linearGradient id="New_Gradient_Swatch_31" gradientUnits="userSpaceOnUse" x1="67.029" x2="444.971" y1="444.971" y2="67.029"><stop offset=".015" stop-color="#8c84bc"/><stop offset="1" stop-color="#dbdfec"/></linearGradient><linearGradient id="New_Gradient_Swatch_27" gradientUnits="userSpaceOnUse" x1="88" x2="424" y1="424" y2="88"><stop offset=".015" stop-color="#c9e4dd"/><stop offset="1" stop-color="#e4f2ee"/></linearGradient><linearGradient id="New_Gradient_Swatch_28" gradientUnits="userSpaceOnUse" x1="345.247" x2="462.751" y1="250.752" y2="133.248"><stop offset=".015" stop-color="#b7bfd8"/><stop offset="1" stop-color="#e4f2ee"/></linearGradient><linearGradient id="New_Gradient_Swatch_28-2" x1="65.247" x2="182.751" xlink:href="#New_Gradient_Swatch_28" y1="410.752" y2="293.248"/><g id="_30-mobile" data-name="30-mobile"><g id="gradient"><rect fill="url(#New_Gradient_Swatch_31)" height="504" rx="24" width="280" x="116" y="4"/><path d="m116 60h280v392h-280z" fill="url(#New_Gradient_Swatch_27)"/><path d="m450.618 140.065a52.007 52.007 0 0 0 -101.477 1.076 52 52 0 0 0 10.859 102.859h88a52 52 0 0 0 2.618-103.935z" fill="url(#New_Gradient_Swatch_28)"/><path d="m170.618 300.065a52.007 52.007 0 0 0 -101.477 1.076 52 52 0 0 0 10.859 102.859h88a52 52 0 0 0 2.618-103.935z" fill="url(#New_Gradient_Swatch_28-2)"/><g fill="#fff"><path d="m280.305 287.392h-16a20.022 20.022 0 0 1 -20-20v-16a20.021 20.021 0 0 1 20-20h16a12 12 0 0 0 0-24h-16a44.049 44.049 0 0 0 -44 44v16a44.05 44.05 0 0 0 44 44h16a12 12 0 0 0 0-24z"/><circle cx="200.304" cy="211.391" r="12"/></g></g></g></svg>