<svg height="512" viewBox="0 0 512 512" width="512" xmlns="http://www.w3.org/2000/svg" xmlns:xlink="http://www.w3.org/1999/xlink"><linearGradient id="New_Gradient_Swatch_33" gradientUnits="userSpaceOnUse" x1="133.892" x2="394.108" y1="442.108" y2="181.892"><stop offset=".015" stop-color="#a9a3cd"/><stop offset="1" stop-color="#dbdfec"/></linearGradient><linearGradient id="New_Gradient_Swatch_29" gradientUnits="userSpaceOnUse" x1="218.521" x2="467.628" y1="308.499" y2="59.392"><stop offset=".015" stop-color="#f9cd55"/><stop offset="1" stop-color="#fed3b2"/></linearGradient><linearGradient id="New_Gradient_Swatch_26" gradientUnits="userSpaceOnUse" x1="261.014" x2="424.986" y1="249.986" y2="86.014"><stop offset=".015" stop-color="#aed7cb"/><stop offset="1" stop-color="#e4f2ee"/></linearGradient><g id="_31-global" data-name="31-global"><g id="gradient"><circle cx="264" cy="312" fill="url(#New_Gradient_Swatch_33)" r="184"/><path d="m427.087 203.41a12.021 12.021 0 0 0 -2.788-4.065 195.9 195.9 0 0 0 -160.299-83.345c-108.075 0-196 87.925-196 196s87.925 196 196 196 196-87.925 196-196a194.87 194.87 0 0 0 -32.913-108.59zm-17.861 200.652a12.11 12.11 0 0 0 -1.226-.062h-48.322a330.505 330.505 0 0 0 12.153-81h63.807a170.86 170.86 0 0 1 -26.412 81.062zm-145.226 79.938c-23.944 0-45.93-21.788-61.4-56h122.8c-15.47 34.212-37.456 56-61.4 56zm-70.53-80c-7.558-23.85-12.325-51.555-13.284-81h167.628c-.959 29.445-5.726 57.15-13.284 81zm-74.7.062a170.86 170.86 0 0 1 -26.408-81.062h63.807a330.505 330.505 0 0 0 12.153 81h-48.322a12.11 12.11 0 0 0 -1.226.062zm0-184.124a12.11 12.11 0 0 0 1.23.062h48.322a329.464 329.464 0 0 0 -12.088 79h-63.745a170.856 170.856 0 0 1 26.285-79.062zm145.23-79.938c23.944 0 45.93 21.788 61.4 56h-122.8c15.47-34.212 37.456-56 61.4-56zm70.53 80c7.387 23.31 12.114 50.3 13.22 79h-167.5c1.106-28.7 5.833-55.69 13.22-79zm37.236 79a329.464 329.464 0 0 0 -12.088-79h49.586a170.856 170.856 0 0 1 26.247 79zm19.115-103h-39.381a213.832 213.832 0 0 0 -8.977-19.658 163.658 163.658 0 0 0 -15.412-24.35 172.672 172.672 0 0 1 63.77 44.008zm-189.99-44.008a163.658 163.658 0 0 0 -15.412 24.35 213.832 213.832 0 0 0 -8.979 19.658h-39.381a172.672 172.672 0 0 1 63.772-44.008zm-63.772 276.008h39.381a213.832 213.832 0 0 0 8.977 19.658 163.631 163.631 0 0 0 15.413 24.35 172.667 172.667 0 0 1 -63.771-44.008zm189.989 44.008a163.631 163.631 0 0 0 15.413-24.35 213.832 213.832 0 0 0 8.979-19.658h39.383a172.667 172.667 0 0 1 -63.775 44.008z" fill="#8c84bc"/><path d="m343 3c-90.981 0-165 74.019-165 165 0 100.857 150.178 250.231 156.571 256.541a12 12 0 0 0 16.623.226c6.406-5.984 156.806-147.81 156.806-256.767 0-90.981-74.019-165-165-165z" fill="url(#New_Gradient_Swatch_29)"/><circle cx="343" cy="168" fill="url(#New_Gradient_Swatch_26)" r="116"/><g fill="#fff"><path d="m372 200h-16a20.023 20.023 0 0 1 -20-20v-16a20.023 20.023 0 0 1 20-20h16a12 12 0 0 0 0-24h-16a44.049 44.049 0 0 0 -44 44v16a44.049 44.049 0 0 0 44 44h16a12 12 0 0 0 0-24z"/><circle cx="292" cy="124" r="12"/></g></g></g></svg>