<svg height="512" viewBox="0 0 512 512" width="512" xmlns="http://www.w3.org/2000/svg" xmlns:xlink="http://www.w3.org/1999/xlink"><linearGradient id="New_Gradient_Swatch_34" gradientUnits="userSpaceOnUse" x1="259.322" x2="400.678" y1="246.678" y2="105.322"><stop offset=".015" stop-color="#f9cd55"/><stop offset="1" stop-color="#fdbc8c"/></linearGradient><linearGradient id="New_Gradient_Swatch_28" gradientUnits="userSpaceOnUse" x1="106.014" x2="405.986" y1="541.986" y2="242.014"><stop offset=".015" stop-color="#b7bfd8"/><stop offset="1" stop-color="#e4f2ee"/></linearGradient><g id="_34-day_temp" data-name="34-day temp"><g id="gradient_blend" data-name="gradient blend"><circle cx="330" cy="176" fill="url(#New_Gradient_Swatch_34)" r="100"/><g fill="#fce6aa"><path d="m330 52a12 12 0 0 1 -12-12v-16a12 12 0 0 1 24 0v16a12 12 0 0 1 -12 12z"/><path d="m258.011 71.294a12 12 0 0 1 -10.4-6l-8-13.856a12 12 0 0 1 20.786-12l8 13.856a12 12 0 0 1 -10.382 18z"/><path d="m205.281 124a11.956 11.956 0 0 1 -5.989-1.609l-13.856-8a12 12 0 0 1 12-20.786l13.856 8a12 12 0 0 1 -6.011 22.395z"/><path d="m468.554 276a11.959 11.959 0 0 1 -5.99-1.609l-13.856-8a12 12 0 1 1 12-20.786l13.856 8a12 12 0 0 1 -6.01 22.4z"/><path d="m490 196h-16a12 12 0 0 1 0-24h16a12 12 0 0 1 0 24z"/><path d="m454.719 124a12 12 0 0 1 -6.011-22.395l13.856-8a12 12 0 1 1 12 20.786l-13.856 8a11.956 11.956 0 0 1 -5.989 1.609z"/><path d="m401.989 71.294a12 12 0 0 1 -10.382-18l8-13.856a12 12 0 1 1 20.786 12l-8 13.856a12 12 0 0 1 -10.404 6z"/></g><path d="m392 276c-1.348 0-2.7.023-4.058.07-2.086-70.97-60.472-128.07-131.942-128.07s-129.856 57.1-131.942 128.07c-1.355-.047-2.71-.07-4.058-.07a116 116 0 0 0 0 232h272a116 116 0 0 0 0-232z" fill="url(#New_Gradient_Swatch_28)"/><path d="m289.7 387.348h-16a20.023 20.023 0 0 1 -20-20v-16a20.022 20.022 0 0 1 20-20h16a12 12 0 0 0 0-24h-16a44.05 44.05 0 0 0 -44 44v16a44.051 44.051 0 0 0 44 44h16a12 12 0 0 0 0-24z" fill="#8c84bc"/><circle cx="209.696" cy="311.348" fill="#8c84bc" r="12"/></g></g></svg>