<svg height="512" viewBox="0 0 512 512" width="512" xmlns="http://www.w3.org/2000/svg" xmlns:xlink="http://www.w3.org/1999/xlink"><linearGradient id="New_Gradient_Swatch_29" gradientUnits="userSpaceOnUse" x1="290.094" x2="414.736" y1="230.259" y2="105.617"><stop offset=".015" stop-color="#f9cd55"/><stop offset="1" stop-color="#fed3b2"/></linearGradient><linearGradient id="New_Gradient_Swatch_28" gradientUnits="userSpaceOnUse" x1="106.014" x2="405.986" y1="541.986" y2="242.014"><stop offset=".015" stop-color="#b7bfd8"/><stop offset="1" stop-color="#e4f2ee"/></linearGradient><g id="_36-night" data-name="36-night"><g id="gradient"><path d="m455.2 163.367a12 12 0 0 0 -11.935-1.7 56.989 56.989 0 0 1 -69.38-83.555 12 12 0 0 0 -9.685-18.471c-1.144-.04-2.291-.076-3.445-.076a99.993 99.993 0 1 0 98.877 115.013 12 12 0 0 0 -4.432-11.211z" fill="url(#New_Gradient_Swatch_29)"/><path d="m392 276c-1.348 0-2.7.023-4.058.07-2.086-70.97-60.472-128.07-131.942-128.07s-129.856 57.1-131.942 128.07c-1.355-.047-2.71-.07-4.058-.07a116 116 0 0 0 0 232h272a116 116 0 0 0 0-232z" fill="url(#New_Gradient_Swatch_28)"/></g></g></svg>