<svg height="512pt" viewBox="0 -99 512 512" width="512pt" xmlns="http://www.w3.org/2000/svg"><path d="m512 228.148438c0 47.527343-38.53125 86.058593-86.078125 86.058593h-311.476563c-63.199218 0-114.44140575-51.226562-114.44140575-114.445312 0-63.199219 51.24218775-114.445313 114.44140575-114.445313 5.671876 0 11.246094.4375 16.707032 1.226563 25.847656-51.324219 79-86.542969 140.40625-86.542969 74.296875 0 136.546875 51.585938 152.894531 120.890625 1.632813 6.914063 2.8125 14.007813 3.492187 21.230469v.015625c46.589844 1.066406 84.054688 39.160156 84.054688 86.011719zm0 0" fill="#d3ddea"/><path d="m326.164062 9.765625c-17.011718-6.316406-35.414062-9.7578125-54.605468-9.7578125-61.40625 0-114.542969 35.2187495-140.410156 86.5273435v.015625c-5.457032-.792969-11.03125-1.226562-16.703126-1.226562-63.214843 0-114.445312 51.246093-114.445312 114.445312 0 63.214844 51.230469 114.445313 114.445312 114.445313h55.316407c-56.964844 0-103.121094-46.171875-103.121094-103.121094 0-50.535156 36.351563-92.585938 84.347656-101.40625 4.75-.886719 9.613281-1.4375 14.570313-1.632812 1.390625-.046876 2.796875-.082032 4.203125-.082032 18.511719 0 35.894531 4.878906 50.90625 13.445313-2.085938-14.53125-17.105469-28.140625-39.25-39.105469 12.160156-41.125 53.542969-79.265625 144.746093-72.546875zm0 0" fill="#84abc1"/></svg>