<svg height="512pt" viewBox="0 -71 512 512" width="512pt" xmlns="http://www.w3.org/2000/svg"><path d="m408.09375 181.847656c0 37.882813-30.710938 68.59375-68.609375 68.59375h-248.265625c-50.371094 0-91.21875-40.832031-91.21875-91.21875 0-50.375 40.847656-91.21875 91.21875-91.21875 4.519531 0 8.964844.347656 13.316406.976563 20.601563-40.910157 62.964844-68.980469 111.910156-68.980469 59.222657 0 108.835938 41.117188 121.867188 96.355469 1.300781 5.511719 2.238281 11.164062 2.78125 16.921875v.011718c37.136719.851563 67 31.214844 67 68.558594zm0 0" fill="#84abc1"/><path d="m259.96875 7.78125c-13.558594-5.035156-28.226562-7.77734375-43.523438-7.77734375-48.945312 0-91.296874 28.07421875-111.910156 68.96874975v.011719c-4.355468-.628906-8.796875-.976563-13.316406-.976563-50.386719 0-91.21875 40.84375-91.21875 91.21875 0 50.386719 40.832031 91.21875 91.21875 91.21875h44.089844c-45.402344 0-82.191406-36.800781-82.191406-82.191406 0-40.28125 28.972656-73.796875 67.230468-80.828125 3.785156-.707031 7.660156-1.144531 11.613282-1.300781 1.105468-.039062 2.226562-.066406 3.347656-.066406 14.757812 0 28.613281 3.890625 40.574218 10.714844-1.660156-11.578126-13.632812-22.425782-31.28125-31.167969 9.691407-32.777344 42.675782-63.175781 115.367188-57.824219zm0 0" fill="#4d87a1"/><path d="m264.3125 245.925781c.496094.085938.789062.085938.835938.085938h-3.796876c.992188 0 1.976563-.03125 2.960938-.085938zm0 0" fill="#84abc1"/><path d="m512 314.097656c0 30.636719-24.835938 55.476563-55.484375 55.476563h-200.785156c-40.738281 0-73.769531-33.023438-73.769531-73.773438 0-40.738281 33.03125-73.773437 73.769531-73.773437 3.65625 0 7.25.28125 10.769531.792968 16.664062-33.085937 50.925781-55.789062 90.507812-55.789062 47.894532 0 88.019532 33.25 98.558594 77.929688 1.050782 4.457031 1.8125 9.027343 2.25 13.683593v.007813c30.035156.6875 54.183594 25.246094 54.183594 55.445312zm0 0" fill="#d3ddea"/><path d="m392.207031 173.324219c-10.964843-4.070313-22.828125-6.289063-35.199219-6.289063-39.582031 0-73.835937 22.703125-90.507812 55.777344v.007812c-3.519531-.507812-7.113281-.789062-10.769531-.789062-40.75 0-73.769531 33.03125-73.769531 73.773438 0 40.75 33.019531 73.769531 73.769531 73.769531h35.660156c-36.71875 0-66.472656-29.761719-66.472656-66.46875 0-32.578125 23.429687-59.683594 54.371093-65.371094 3.0625-.570313 6.195313-.925781 9.394532-1.050781.894531-.03125 1.800781-.050782 2.707031-.050782 11.933594 0 23.140625 3.144532 32.8125 8.664063-1.34375-9.367187-11.023437-18.140625-25.300781-25.210937 7.839844-26.507813 34.515625-51.089844 93.304687-46.761719zm0 0" fill="#84abc1"/></svg>