<svg height="512pt" viewBox="0 -7 512 512" width="512pt" xmlns="http://www.w3.org/2000/svg"><path d="m21.316406 398.5625c-12.738281 7.371094-21.316406 21.136719-21.316406 36.914062 0 .566407.0117188 1.125.03125 1.683594 1.042969 26.796875 41.527344 26.796875 42.566406 0 .023438-.558594.035156-1.117187.035156-1.683594 0-15.777343-8.578124-29.542968-21.316406-36.914062zm0 0" fill="#84abc1"/><path d="m21.316406 457.257812c-10.378906 0-20.753906-6.703124-21.2734372-20.097656-.0234376-.5625-.0429688-1.125-.0429688-1.683594 0-15.773437 8.578125-29.542968 21.316406-36.914062-2.570312 7.371094-4.292968 21.140625-4.292968 36.914062 0 .558594 0 1.121094.007812 1.683594.105469 13.394532 2.195312 20.097656 4.285156 20.097656zm0 0" fill="#4d87a1"/><path d="m114.753906 438.421875c-12.742187 7.371094-21.316406 21.136719-21.316406 36.914063 0 .566406.011719 1.125.03125 1.683593 1.039062 26.796875 41.527344 26.796875 42.566406 0 .023438-.558593.03125-1.117187.03125-1.683593.003906-15.777344-8.574218-29.542969-21.3125-36.914063zm0 0" fill="#84abc1"/><path d="m114.753906 497.117188c-10.378906 0-20.757812-6.703126-21.277344-20.097657-.019531-.5625-.039062-1.125-.039062-1.683593 0-15.773438 8.578125-29.542969 21.316406-36.914063-2.570312 7.371094-4.296875 21.140625-4.296875 36.914063 0 .558593 0 1.121093.011719 1.683593.105469 13.394531 2.195312 20.097657 4.285156 20.097657zm0 0" fill="#4d87a1"/><path d="m114.753906 329.023438c-12.742187 7.371093-21.316406 21.136718-21.316406 36.914062 0 .5625.011719 1.125.03125 1.679688 1.039062 26.800781 41.527344 26.800781 42.566406 0 .023438-.554688.03125-1.117188.03125-1.679688.003906-15.777344-8.574218-29.542969-21.3125-36.914062zm0 0" fill="#84abc1"/><path d="m114.753906 387.71875c-10.378906 0-20.757812-6.707031-21.277344-20.101562-.019531-.558594-.039062-1.121094-.039062-1.683594 0-15.773438 8.578125-29.539063 21.316406-36.914063-2.570312 7.375-4.296875 21.140625-4.296875 36.914063 0 .5625 0 1.125.011719 1.683594.105469 13.394531 2.195312 20.101562 4.285156 20.101562zm0 0" fill="#4d87a1"/><path d="m208.1875 398.5625c-12.738281 7.371094-21.316406 21.136719-21.316406 36.914062 0 .566407.011718 1.125.03125 1.683594 1.042968 26.796875 41.527344 26.796875 42.566406 0 .023438-.558594.035156-1.117187.035156-1.683594 0-15.777343-8.578125-29.542968-21.316406-36.914062zm0 0" fill="#84abc1"/><path d="m208.1875 457.257812c-10.378906 0-20.753906-6.703124-21.273438-20.097656-.023437-.5625-.042968-1.125-.042968-1.683594 0-15.773437 8.578125-29.542968 21.316406-36.914062-2.566406 7.371094-4.292969 21.140625-4.292969 36.914062 0 .558594 0 1.121094.007813 1.683594.105468 13.394532 2.195312 20.097656 4.285156 20.097656zm0 0" fill="#4d87a1"/><path d="m301.625 438.421875c-12.738281 7.371094-21.316406 21.136719-21.316406 36.914063 0 .566406.007812 1.125.03125 1.683593 1.039062 26.796875 41.527344 26.796875 42.566406 0 .023438-.558593.03125-1.117187.03125-1.683593.003906-15.777344-8.574219-29.542969-21.3125-36.914063zm0 0" fill="#84abc1"/><path d="m301.625 497.117188c-10.378906 0-20.757812-6.703126-21.277344-20.097657-.019531-.5625-.039062-1.125-.039062-1.683593 0-15.773438 8.578125-29.542969 21.316406-36.914063-2.570312 7.371094-4.296875 21.140625-4.296875 36.914063 0 .558593 0 1.121093.011719 1.683593.105468 13.394531 2.195312 20.097657 4.285156 20.097657zm0 0" fill="#4d87a1"/><path d="m489.035156 438.421875c-12.738281 7.371094-21.316406 21.136719-21.316406 36.914063 0 .566406.011719 1.125.03125 1.683593 1.042969 26.796875 41.527344 26.796875 42.566406 0 .023438-.558593.035156-1.117187.035156-1.683593 0-15.777344-8.578124-29.542969-21.316406-36.914063zm0 0" fill="#84abc1"/><path d="m489.035156 497.117188c-10.378906 0-20.753906-6.703126-21.273437-20.097657-.023438-.5625-.042969-1.125-.042969-1.683593 0-15.773438 8.578125-29.542969 21.316406-36.914063-2.570312 7.371094-4.296875 21.140625-4.296875 36.914063 0 .558593 0 1.121093.011719 1.683593.105469 13.394531 2.195312 20.097657 4.285156 20.097657zm0 0" fill="#4d87a1"/><path d="m395.058594 398.5625c-12.738282 7.371094-21.316406 21.136719-21.316406 36.914062 0 .566407.011718 1.125.03125 1.683594 1.042968 26.796875 41.527343 26.796875 42.566406 0 .023437-.558594.035156-1.117187.035156-1.683594 0-15.777343-8.578125-29.542968-21.316406-36.914062zm0 0" fill="#84abc1"/><path d="m395.058594 457.257812c-10.378906 0-20.753906-6.703124-21.273438-20.097656-.023437-.5625-.042968-1.125-.042968-1.683594 0-15.773437 8.578124-29.542968 21.316406-36.914062-2.566406 7.371094-4.292969 21.140625-4.292969 36.914062 0 .558594 0 1.121094.007813 1.683594.105468 13.394532 2.195312 20.097656 4.285156 20.097656zm0 0" fill="#4d87a1"/><path d="m408.25 181.570312c0 37.824219-30.664062 68.492188-68.503906 68.492188h-247.886719c-50.296875 0-91.082031-40.773438-91.082031-91.082031 0-50.296875 40.78125-91.082031 91.082031-91.082031 4.511719 0 8.945313.347656 13.292969.976562 20.570312-40.84375 62.871094-68.875 111.742187-68.875 59.128907 0 108.667969 41.054688 121.679688 96.210938 1.300781 5.503906 2.238281 11.144531 2.777343 16.894531v.011719c37.082032.851562 66.898438 31.167968 66.898438 68.453124zm0 0" fill="#84abc1"/><path d="m260.351562 7.769531c-13.539062-5.027343-28.183593-7.76562475-43.457031-7.76562475-48.871093 0-91.160156 28.03124975-111.742187 68.86328175v.011718c-4.347656-.628906-8.78125-.976562-13.292969-.976562-50.3125 0-91.082031 40.785156-91.082031 91.082031 0 50.3125 40.769531 91.082031 91.082031 91.082031h44.019531c-45.332031 0-82.066406-36.746094-82.066406-82.070312 0-40.214844 28.929688-73.683594 67.128906-80.703125 3.777344-.707031 7.648438-1.144531 11.597656-1.300781 1.105469-.035157 2.222657-.0625 3.339844-.0625 14.734375 0 28.570313 3.882812 40.515625 10.699218-1.660156-11.5625-13.613281-22.394531-31.238281-31.125 9.679688-32.726562 42.613281-63.078125 115.195312-57.734375zm0 0" fill="#4d87a1"/><path d="m264.6875 245.550781c.496094.089844.789062.089844.835938.089844h-3.792969c.992187 0 1.972656-.03125 2.957031-.089844zm0 0" fill="#84abc1"/><path d="m512 313.621094c0 30.589844-24.800781 55.390625-55.402344 55.390625h-200.476562c-40.675782 0-73.660156-32.972657-73.660156-73.660157 0-40.679687 32.984374-73.660156 73.660156-73.660156 3.648437 0 7.238281.28125 10.75.789063 16.640625-33.035157 50.847656-55.703125 90.371094-55.703125 47.824218 0 87.886718 33.203125 98.410156 77.808594 1.050781 4.453124 1.808594 9.015624 2.246094 13.664062v.011719c29.988281.683593 54.101562 25.203125 54.101562 55.359375zm0 0" fill="#d3ddea"/><path d="m392.386719 173.0625c-10.949219-4.066406-22.792969-6.28125-35.144531-6.28125-39.523438 0-73.722657 22.667969-90.371094 55.691406v.011719c-3.515625-.511719-7.101563-.789063-10.75-.789063-40.6875 0-73.660156 32.980469-73.660156 73.660157 0 40.6875 32.972656 73.660156 73.660156 73.660156h35.601562c-36.664062 0-66.371094-29.71875-66.371094-66.371094 0-32.527343 23.394532-59.59375 54.289063-65.269531 3.058594-.574219 6.1875-.925781 9.378906-1.050781.894531-.03125 1.800781-.050781 2.703125-.050781 11.917969 0 23.105469 3.140624 32.765625 8.648437-1.339843-9.351563-11.007812-18.109375-25.261719-25.167969 7.824219-26.46875 34.460938-51.015625 93.160157-46.691406zm0 0" fill="#84abc1"/></svg>