<svg height="512pt" viewBox="0 0 512 512" width="512pt" xmlns="http://www.w3.org/2000/svg"><path d="m511.433594 227.894531c0 47.476563-38.488282 85.964844-85.980469 85.964844h-311.132813c-63.128906 0-114.320312-51.171875-114.320312-114.316406 0-63.132813 51.191406-114.320313 114.320312-114.320313 5.664063 0 11.230469.433594 16.6875 1.226563 25.820313-51.269531 78.910157-86.449219 140.25-86.449219 74.21875 0 136.398438 51.527344 152.726563 120.757812 1.632813 6.90625 2.808594 13.992188 3.488281 21.207032v.015625c46.539063 1.0625 83.960938 39.117187 83.960938 85.914062zm0 0" fill="#84abc1"/><path d="m325.800781 9.753906c-16.992187-6.3125-35.371093-9.74999975-54.542969-9.74999975-61.339843 0-114.414062 35.18359375-140.253906 86.43359375v.015625c-5.453125-.789063-11.019531-1.226563-16.683594-1.226563-63.148437 0-114.320312 51.191407-114.320312 114.320313 0 63.148437 51.171875 114.320313 114.320312 114.320313h55.253907c-56.902344 0-103.007813-46.121094-103.007813-103.007813 0-50.476563 36.3125-92.484375 84.253906-101.292969 4.746094-.886718 9.601563-1.4375 14.558594-1.632812 1.386719-.046875 2.789063-.078125 4.195313-.078125 18.492187 0 35.855469 4.871093 50.851562 13.425781-2.085937-14.511719-17.085937-28.105469-39.207031-39.0625 12.144531-41.078125 53.484375-79.175781 144.582031-72.464844zm0 0" fill="#4d87a1"/><path d="m357.722656 139.523438-194.324218 174.421874h48.257812l-70.503906 81.363282h50.609375l-80.035157 116.691406 191.855469-133.492188h-52.96875l84.746094-95.222656h-52.964844z" fill="#ffee8c"/></svg>