<svg height="511pt" viewBox="-2 1 511 511.99897" width="511pt" xmlns="http://www.w3.org/2000/svg"><path d="m404.480469 180.015625c0 37.5-30.402344 67.902344-67.914063 67.902344h-245.765625c-49.867187 0-90.300781-40.417969-90.300781-90.300781 0-49.863282 40.433594-90.300782 90.300781-90.300782 4.472657 0 8.871094.34375 13.179688.96875 20.394531-40.496094 62.335937-68.285156 110.785156-68.285156 58.625 0 107.738281 40.703125 120.640625 95.386719 1.285156 5.457031 2.214844 11.050781 2.753906 16.75v.011719c36.761719.839843 66.320313 30.898437 66.320313 67.867187zm0 0" fill="#84abc1"/><path d="m257.851562 7.703125c-13.421874-4.984375-27.941406-7.69921875-43.085937-7.69921875-48.453125 0-90.378906 27.78906275-110.785156 68.27343775v.011718c-4.308594-.621093-8.707031-.96875-13.179688-.96875-49.878906 0-90.300781 40.433594-90.300781 90.300782 0 49.882812 40.421875 90.300781 90.300781 90.300781h43.644531c-44.945312 0-81.363281-36.429687-81.363281-81.363281 0-39.871094 28.679688-73.054688 66.550781-80.011719 3.75-.703125 7.585938-1.136719 11.5-1.289063 1.09375-.039062 2.203126-.0625 3.3125-.0625 14.609376 0 28.324219 3.847657 40.167969 10.605469-1.644531-11.464843-13.496093-22.203125-30.96875-30.855469 9.59375-32.449218 42.246094-62.542968 114.207031-57.242187zm0 0" fill="#4d87a1"/><path d="m262.152344 255.304688c.488281.085937.777344.085937.824218.085937h-3.757812c.980469 0 1.957031-.03125 2.933594-.085937zm0 0" fill="#84abc1"/><path d="m507.34375 310.933594c0 30.328125-24.585938 54.917968-54.925781 54.917968h-198.761719c-40.328125 0-73.03125-32.691406-73.03125-73.03125 0-40.328124 32.703125-73.03125 73.03125-73.03125 3.617188 0 7.175781.28125 10.660156.785157 16.496094-32.753907 50.410156-55.226563 89.597656-55.226563 47.410157 0 87.132813 32.917969 97.566407 77.144532 1.039062 4.410156 1.792969 8.9375 2.226562 13.546874v.007813c29.730469.679687 53.636719 24.992187 53.636719 54.886719zm0 0" fill="#d3ddea"/><path d="m388.757812 171.578125c-10.855468-4.03125-22.597656-6.226563-34.847656-6.226563-39.183594 0-73.089844 22.476563-89.59375 55.214844v.011719c-3.484375-.503906-7.042968-.785156-10.660156-.785156-40.339844 0-73.03125 32.703125-73.03125 73.03125 0 40.339843 32.691406 73.03125 73.03125 73.03125h35.296875c-36.347656 0-65.800781-29.464844-65.800781-65.804688 0-32.246093 23.195312-59.082031 53.824218-64.710937 3.027344-.566406 6.132813-.917969 9.296876-1.039063.886718-.03125 1.785156-.050781 2.679687-.050781 11.816406 0 22.90625 3.113281 32.484375 8.574219-1.328125-9.269531-10.914062-17.953125-25.046875-24.953125 7.761719-26.242188 34.167969-50.578125 92.367187-46.292969zm0 0" fill="#84abc1"/><g fill="#d3ddea"><path d="m104.035156 322.191406c-2.136718-3.699218-6.863281-4.964844-10.5625-2.832031l-15.855468 9.15625v-18.308594c0-4.269531-3.460938-7.730469-7.730469-7.730469s-7.734375 3.460938-7.734375 7.730469v18.308594l-15.851563-9.15625c-3.699219-2.136719-8.425781-.867187-10.5625 2.832031-2.136719 3.695313-.867187 8.425782 2.828125 10.5625l15.855469 9.152344-15.855469 9.152344c-3.695312 2.136718-4.964844 6.863281-2.828125 10.5625 1.433594 2.480468 4.03125 3.867187 6.703125 3.867187 1.3125 0 2.640625-.335937 3.859375-1.039062l15.851563-9.152344v18.308594c0 4.269531 3.464844 7.730469 7.734375 7.730469s7.730469-3.460938 7.730469-7.730469v-18.308594l15.855468 9.152344c1.21875.703125 2.546875 1.039062 3.859375 1.039062 2.671875 0 5.269531-1.386719 6.703125-3.867187 2.132813-3.699219.867188-8.425782-2.832031-10.5625l-15.851563-9.152344 15.851563-9.152344c3.699219-2.136718 4.96875-6.867187 2.832031-10.5625zm0 0"/><path d="m104.035156 452.855469c-2.136718-3.699219-6.863281-4.96875-10.5625-2.832031l-15.855468 9.15625v-18.308594c0-4.269532-3.460938-7.734375-7.730469-7.734375s-7.734375 3.464843-7.734375 7.734375v18.304687l-15.851563-9.152343c-3.699219-2.136719-8.425781-.867188-10.5625 2.828124-2.136719 3.699219-.867187 8.429688 2.828125 10.5625l15.855469 9.15625-15.855469 9.152344c-3.695312 2.132813-4.964844 6.863282-2.828125 10.5625 1.433594 2.480469 4.03125 3.867188 6.703125 3.867188 1.3125 0 2.640625-.335938 3.859375-1.039063l15.851563-9.152343v18.304687c0 4.273437 3.464844 7.734375 7.734375 7.734375s7.730469-3.460938 7.730469-7.734375v-18.304687l15.855468 9.152343c1.21875.703125 2.546875 1.039063 3.859375 1.039063 2.671875 0 5.269531-1.390625 6.703125-3.867188 2.132813-3.699218.867188-8.429687-2.832031-10.5625l-15.851563-9.152344 15.851563-9.15625c3.699219-2.132812 4.96875-6.863281 2.832031-10.558593zm0 0"/><path d="m227.59375 416.769531c-2.136719-3.699219-6.863281-4.964843-10.5625-2.828125l-15.851562 9.152344v-18.308594c0-4.269531-3.464844-7.730468-7.734376-7.730468-4.269531 0-7.730468 3.460937-7.730468 7.730468v18.308594l-15.855469-9.152344c-3.699219-2.136718-8.425781-.871094-10.5625 2.828125-2.132813 3.699219-.867187 8.425781 2.832031 10.5625l15.855469 9.152344-15.855469 9.152344c-3.699218 2.136719-4.964844 6.863281-2.832031 10.5625 1.433594 2.480469 4.03125 3.867187 6.703125 3.867187 1.3125 0 2.640625-.332031 3.859375-1.035156l15.855469-9.15625v18.308594c0 4.269531 3.460937 7.730468 7.730468 7.730468 4.269532 0 7.734376-3.460937 7.734376-7.730468v-18.304688l15.851562 9.152344c1.21875.703125 2.546875 1.035156 3.859375 1.035156 2.671875 0 5.273437-1.386718 6.703125-3.867187 2.136719-3.695313.867188-8.425781-2.828125-10.558594l-15.855469-9.15625 15.855469-9.152344c3.695313-2.136719 4.964844-6.863281 2.828125-10.5625zm0 0"/><path d="m351.152344 452.855469c-2.132813-3.699219-6.863282-4.96875-10.5625-2.832031l-15.851563 9.15625v-18.308594c0-4.269532-3.460937-7.734375-7.734375-7.734375-4.269531 0-7.730468 3.464843-7.730468 7.734375v18.304687l-15.855469-9.152343c-3.699219-2.136719-8.425781-.867188-10.5625 2.828124-2.132813 3.699219-.867188 8.429688 2.832031 10.5625l15.855469 9.15625-15.855469 9.152344c-3.699219 2.132813-4.964844 6.863282-2.832031 10.5625 1.433593 2.480469 4.03125 3.867188 6.703125 3.867188 1.3125 0 2.644531-.335938 3.859375-1.039063l15.855469-9.152343v18.304687c0 4.273437 3.460937 7.734375 7.730468 7.734375 4.273438 0 7.734375-3.460938 7.734375-7.734375v-18.304687l15.851563 9.152343c1.21875.703125 2.550781 1.039063 3.859375 1.039063 2.671875 0 5.273437-1.390625 6.703125-3.867188 2.136718-3.699218.867187-8.429687-2.828125-10.5625l-15.855469-9.152344 15.855469-9.15625c3.695312-2.132812 4.964843-6.863281 2.828125-10.558593zm0 0"/><path d="m471.882812 445.640625-15.855468-9.15625 15.855468-9.152344c3.699219-2.136719 4.964844-6.863281 2.832032-10.5625-2.136719-3.695312-6.867188-4.964843-10.5625-2.828125l-15.855469 9.152344v-18.308594c0-4.269531-3.460937-7.730468-7.730469-7.730468-4.273437 0-7.734375 3.460937-7.734375 7.730468v18.308594l-15.851562-9.152344c-3.703125-2.136718-8.429688-.867187-10.5625 2.828125-2.136719 3.699219-.867188 8.425781 2.828125 10.5625l15.855468 9.152344-15.855468 9.15625c-3.695313 2.132813-4.964844 6.863281-2.828125 10.558594 1.429687 2.480469 4.03125 3.867187 6.703125 3.867187 1.3125 0 2.640625-.332031 3.859375-1.035156l15.851562-9.152344v18.304688c0 4.269531 3.460938 7.730468 7.734375 7.730468 4.269532 0 7.730469-3.460937 7.730469-7.730468v-18.304688l15.855469 9.152344c1.21875.703125 2.546875 1.035156 3.859375 1.035156 2.671875 0 5.269531-1.386718 6.703125-3.867187 2.132812-3.699219.867187-8.425781-2.832032-10.558594zm0 0"/></g></svg>