<svg height="512pt" viewBox="0 -36 512 511" width="512pt" xmlns="http://www.w3.org/2000/svg"><path d="m447.996094 440.390625c-19.199219 0-28.914063-9.515625-37.484375-17.914063-7.664063-7.503906-13.71875-13.433593-26.519531-13.433593-12.800782 0-18.855469 5.929687-26.519532 13.433593-8.570312 8.398438-18.28125 17.914063-37.480468 17.914063-19.199219 0-28.914063-9.515625-37.484376-17.914063-7.664062-7.503906-13.714843-13.433593-26.515624-13.433593-12.800782 0-18.855469 5.929687-26.515626 13.433593-8.570312 8.394532-18.285156 17.914063-37.480468 17.914063-19.199219 0-28.914063-9.515625-37.484375-17.914063-7.664063-7.503906-13.714844-13.433593-26.515625-13.433593-12.800782 0-18.851563 5.929687-26.515625 13.433593-8.570313 8.398438-18.285157 17.914063-37.484375 17.914063-19.199219 0-28.910156-9.515625-37.484375-17.914063-7.660157-7.507812-13.710938-13.433593-26.511719-13.433593v-15.675781c19.199219 0 28.910156 9.519531 37.480469 17.914062 7.664062 7.507812 13.714843 13.433594 26.515625 13.433594 12.800781 0 18.855468-5.925782 26.515625-13.433594 8.570312-8.394531 18.285156-17.914062 37.484375-17.914062 19.199218 0 28.914062 9.519531 37.484375 17.914062 7.660156 7.507812 13.714843 13.433594 26.515625 13.433594 12.796875 0 18.851562-5.925782 26.511718-13.433594 8.570313-8.394531 18.285157-17.914062 37.484376-17.914062 19.199218 0 28.910156 9.519531 37.480468 17.914062 7.664063 7.507812 13.71875 13.433594 26.519532 13.433594 12.800781 0 18.851562-5.925782 26.515624-13.433594 8.570313-8.394531 18.285157-17.914062 37.484376-17.914062 19.199218 0 28.914062 9.519531 37.484374 17.914062 7.664063 7.507812 13.71875 13.433594 26.519532 13.433594 12.800781 0 18.855468-5.925782 26.519531-13.433594 8.570313-8.394531 18.285156-17.914062 37.484375-17.914062v15.675781c-12.800781 0-18.855469 5.929687-26.519531 13.433593-8.570313 8.398438-18.285157 17.914063-37.484375 17.914063zm0 0" fill="#84abc1"/><path d="m447.996094 382.585938c-19.199219 0-28.914063-9.515626-37.484375-17.910157-7.664063-7.507812-13.71875-13.433593-26.519531-13.433593-12.800782 0-18.855469 5.925781-26.519532 13.433593-8.570312 8.394531-18.28125 17.910157-37.480468 17.910157-19.199219 0-28.914063-9.515626-37.484376-17.910157-7.664062-7.507812-13.714843-13.433593-26.515624-13.433593-12.800782 0-18.855469 5.925781-26.515626 13.433593-8.570312 8.394531-18.285156 17.910157-37.480468 17.910157-19.199219 0-28.914063-9.515626-37.484375-17.910157-7.664063-7.507812-13.714844-13.433593-26.515625-13.433593-12.800782 0-18.851563 5.925781-26.515625 13.433593-8.570313 8.394531-18.285157 17.910157-37.484375 17.910157-19.199219 0-28.910156-9.515626-37.484375-17.910157-7.660157-7.507812-13.710938-13.433593-26.511719-13.433593v-15.675782c19.199219 0 28.910156 9.515625 37.480469 17.914063 7.664062 7.503906 13.714843 13.433593 26.515625 13.433593 12.800781 0 18.855468-5.929687 26.515625-13.433593 8.570312-8.394531 18.285156-17.914063 37.484375-17.914063 19.199218 0 28.914062 9.515625 37.484375 17.914063 7.660156 7.507812 13.714843 13.433593 26.515625 13.433593 12.796875 0 18.851562-5.929687 26.511718-13.433593 8.570313-8.394531 18.285157-17.914063 37.484376-17.914063 19.199218 0 28.910156 9.515625 37.480468 17.914063 7.664063 7.503906 13.71875 13.433593 26.519532 13.433593 12.800781 0 18.851562-5.929687 26.515624-13.433593 8.570313-8.394531 18.285157-17.914063 37.484376-17.914063 19.199218 0 28.914062 9.515625 37.484374 17.914063 7.664063 7.503906 13.71875 13.433593 26.519532 13.433593 12.800781 0 18.855468-5.929687 26.519531-13.433593 8.570313-8.398438 18.285156-17.914063 37.484375-17.914063v15.675782c-12.800781 0-18.855469 5.925781-26.519531 13.433593-8.570313 8.394531-18.285157 17.910157-37.484375 17.910157zm0 0" fill="#84abc1"/><g fill="#d3ddea"><path d="m506.164062 205.535156c-3.605468-3.605468-8.582031-5.832031-14.089843-5.832031h-44.945313c-10.992187 0-19.910156-8.917969-19.910156-19.917969 0-5.507812-2.226562-10.484375-5.835938-14.089844-3.605468-3.605468-8.589843-5.832031-14.085937-5.832031h-118.378906c-11 0-19.917969-8.917969-19.917969-19.917969 0-5.507812 2.226562-10.484374 5.832031-14.089843s8.589844-5.832031 14.085938-5.832031h162.5c11.003906 0 19.921875-8.917969 19.921875-19.917969 0-11.003907-8.917969-19.921875-19.921875-19.921875h-349.3125c-11 0-19.917969 8.917968-19.917969 19.921875 0 5.503906 2.226562 10.480469 5.832031 14.085937 3.605469 3.605469 8.582031 5.832032 14.085938 5.832032h21.839843c11.003907 0 19.921876 8.917968 19.921876 19.921874 0 5.503907-2.226563 10.480469-5.832032 14.085938-3.605468 3.605469-8.582031 5.832031-14.089844 5.832031h-70.097656c-10.992187 0-19.910156 8.917969-19.910156 19.921875 0 5.503906 2.226562 10.480469 5.832031 14.085938 3.605469 3.605468 8.582031 5.832031 14.078125 5.832031h105.730469c11 0 19.917969 8.917969 19.917969 19.921875 0 5.496094-2.226563 10.46875-5.832032 14.074219-3.605468 3.605469-8.582031 5.832031-14.085937 5.832031h-139.65625c-11 0-19.91796875 8.917969-19.91796875 19.921875 0 5.496094 2.22656275 10.480469 5.83203175 14.085937 3.605468 3.605469 8.589843 5.832032 14.085937 5.832032h317.398437c11.003907 0 19.921876-8.917969 19.921876-19.917969 0-5.496094 2.226562-10.480469 5.832031-14.085937 3.605469-3.609376 8.589843-5.835938 14.085937-5.835938h114.914063c11.003906 0 19.921875-8.917969 19.921875-19.910156 0-5.503906-2.226563-10.480469-5.832032-14.085938zm-207.777343 32.476563h-53.773438c-5.496093 0-10.46875-2.226563-14.078125-5.832031-3.605468-3.605469-5.832031-8.582032-5.832031-14.089844 0-11 8.917969-19.917969 19.910156-19.917969h53.777344c5.503906 0 10.480469 2.226563 14.085937 5.832031 3.605469 3.605469 5.832032 8.582032 5.832032 14.085938 0 11.003906-8.917969 19.921875-19.921875 19.921875zm0 0"/><path d="m201.703125.5h-166.003906c-11.003907 0-19.921875 8.917969-19.921875 19.921875 0 11 8.917968 19.921875 19.921875 19.921875h166.003906c11 0 19.917969-8.921875 19.917969-19.921875 0-11.003906-8.917969-19.921875-19.917969-19.921875zm0 0"/><path d="m380.316406.5h-102.820312c-11 0-19.917969 8.917969-19.917969 19.921875 0 11 8.917969 19.921875 19.917969 19.921875h102.820312c11.003906 0 19.921875-8.921875 19.921875-19.921875 0-11.003906-8.917969-19.921875-19.921875-19.921875zm0 0"/></g></svg>